<svg width="30" height="30" viewBox="0 0 30 30" fill="none" xmlns="http://www.w3.org/2000/svg">
<mask id="mask0_1066_1099" style="mask-type:alpha" maskUnits="userSpaceOnUse" x="0" y="0" width="30" height="30">
<path d="M2.5 15C2.5 19.714 2.5 22.0711 3.96447 23.5355C5.42893 25 7.78595 25 12.5 25H17.5C22.214 25 24.5711 25 26.0355 23.5355C27.5 22.0711 27.5 19.714 27.5 15C27.5 13.8178 27.5231 13.4088 27.5 12.5M16.25 5H12.5C7.78595 5 5.42893 5 3.96447 6.46447C3.14799 7.28094 2.78672 8.37486 2.62687 10" stroke="white" stroke-width="1.5" stroke-linecap="round"/>
<path d="M7.5 10L9.58048 11.7337M19.8014 12.2488C17.5056 14.162 16.3577 15.1186 15 15.1186C14.1884 15.1186 13.4517 14.7767 12.5 14.0931" stroke="white" stroke-width="1.5" stroke-linecap="round"/>
<circle cx="23.75" cy="6.25" r="3.75" stroke="white" stroke-width="1.5"/>
</mask>
<g mask="url(#mask0_1066_1099)">
<rect x="1" y="1" width="28" height="25" fill="white"/>
</g>
</svg>
