<svg width="42" height="42" viewBox="0 0 42 42" fill="none" xmlns="http://www.w3.org/2000/svg">
<circle cx="21" cy="21" r="21" fill="white"/>
<path d="M16 8.3335C11.7776 8.3335 8.33337 11.7778 8.33337 16.0002V26.0002C8.33337 30.222 11.7775 33.6668 16 33.6668H26C30.222 33.6668 33.6667 30.2221 33.6667 26.0002V16.0002C33.6667 11.7776 30.2219 8.3335 26 8.3335H16ZM16 10.3335H26C29.1409 10.3335 31.6667 12.8587 31.6667 16.0002V26.0002C31.6667 29.1409 29.1407 31.6668 26 31.6668H16C12.8586 31.6668 10.3334 29.141 10.3334 26.0002V16.0002C10.3334 12.8586 12.8584 10.3335 16 10.3335ZM27.6667 13.0002C26.93 13.0002 26.3334 13.5968 26.3334 14.3335C26.3334 15.0702 26.93 15.6668 27.6667 15.6668C28.4034 15.6668 29 15.0702 29 14.3335C29 13.5968 28.4034 13.0002 27.6667 13.0002ZM21 14.3335C17.3302 14.3335 14.3334 17.3303 14.3334 21.0002C14.3334 24.67 17.3302 27.6668 21 27.6668C24.6699 27.6668 27.6667 24.67 27.6667 21.0002C27.6667 17.3303 24.6699 14.3335 21 14.3335ZM21 16.3335C23.5888 16.3335 25.6667 18.4114 25.6667 21.0002C25.6667 23.5889 23.5888 25.6668 21 25.6668C18.4113 25.6668 16.3334 23.5889 16.3334 21.0002C16.3334 18.4114 18.4113 16.3335 21 16.3335Z" fill="black"/>
</svg>
