<svg width="21" height="21" viewBox="0 0 21 21" fill="none" xmlns="http://www.w3.org/2000/svg">
<mask id="mask0_1066_1103" style="mask-type:alpha" maskUnits="userSpaceOnUse" x="0" y="0" width="21" height="21">
<path d="M10.2596 1.88032C10.3258 1.47143 10.7124 1.19406 11.1212 1.26025C11.1466 1.2651 11.228 1.28032 11.2707 1.28982C11.356 1.30882 11.475 1.33808 11.6234 1.38131C11.9202 1.46775 12.3348 1.61015 12.8324 1.83829C13.8287 2.29505 15.1545 3.09405 16.5303 4.46985C17.9061 5.84565 18.7051 7.17146 19.1619 8.16774C19.39 8.66536 19.5324 9.07996 19.6188 9.37674C19.6621 9.52515 19.6913 9.64417 19.7103 9.7295C19.7198 9.77217 19.7268 9.80643 19.7316 9.83174L19.7374 9.86294C19.8036 10.2718 19.5287 10.6743 19.1198 10.7405C18.7121 10.8065 18.328 10.5305 18.2602 10.1235C18.2581 10.1126 18.2524 10.0833 18.2462 10.0556C18.2339 10.0002 18.2125 9.91236 18.1787 9.79621C18.111 9.56388 17.9935 9.21854 17.7983 8.79287C17.4085 7.94256 16.7075 6.76837 15.4696 5.53051C14.2318 4.29265 13.0576 3.59165 12.2073 3.20182C11.7816 3.00667 11.4363 2.88913 11.2039 2.82146C11.0878 2.78763 10.9418 2.75412 10.8864 2.74178C10.4794 2.67396 10.1936 2.28804 10.2596 1.88032Z" fill="#1C274C"/>
<path fill-rule="evenodd" clip-rule="evenodd" d="M10.4859 5.32978C10.5997 4.93151 11.0148 4.70089 11.413 4.81468L11.207 5.53583C11.413 4.81468 11.413 4.81468 11.413 4.81468L11.4145 4.8151L11.416 4.81554L11.4194 4.81651L11.4271 4.81883L11.4469 4.82499C11.462 4.82981 11.4808 4.83609 11.5033 4.84406C11.5482 4.85999 11.6075 4.88266 11.6803 4.91386C11.826 4.9763 12.0251 5.07272 12.2696 5.21743C12.7591 5.50711 13.4272 5.98829 14.2122 6.77326C14.9972 7.55823 15.4784 8.22642 15.768 8.71589C15.9128 8.9604 16.0092 9.15946 16.0716 9.30515C16.1028 9.37795 16.1255 9.43731 16.1414 9.48222C16.1494 9.50467 16.1557 9.5235 16.1605 9.53858L16.1666 9.55837L16.169 9.56612L16.1699 9.56945L16.1704 9.57098C16.1704 9.57098 16.1708 9.57243 15.4496 9.77847L16.1708 9.57242C16.2846 9.9707 16.054 10.3858 15.6557 10.4996C15.2608 10.6124 14.8493 10.3867 14.7315 9.99462L14.7278 9.98384C14.7224 9.96881 14.7114 9.93923 14.6929 9.89602C14.6559 9.80969 14.5888 9.66846 14.4772 9.47987C14.2542 9.10312 13.8515 8.53388 13.1516 7.83392C12.4516 7.13397 11.8823 6.73126 11.5056 6.5083C11.317 6.39668 11.1758 6.32958 11.0894 6.29258C11.0462 6.27406 11.0167 6.26303 11.0016 6.2577L10.9909 6.254C10.5988 6.13613 10.373 5.72468 10.4859 5.32978Z" fill="#1C274C"/>
<path fill-rule="evenodd" clip-rule="evenodd" d="M2.00745 4.40708C3.68752 2.72701 6.52266 2.85473 7.69248 4.95085L8.34149 6.11378C9.10541 7.4826 8.77987 9.20968 7.66157 10.3417C7.64668 10.3621 7.56774 10.477 7.55791 10.6778C7.54536 10.9341 7.63639 11.5269 8.55482 12.4453C9.47295 13.3635 10.0656 13.4547 10.3221 13.4422C10.5231 13.4325 10.6381 13.3535 10.6585 13.3386C11.7905 12.2203 13.5176 11.8947 14.8864 12.6587L16.0493 13.3077C18.1454 14.4775 18.2731 17.3126 16.5931 18.9927C15.6944 19.8914 14.4995 20.6899 13.0953 20.7431C11.0144 20.822 7.55913 20.2846 4.13735 16.8628C0.715564 13.441 0.178177 9.98579 0.257065 7.90486C0.310297 6.50066 1.10879 5.30574 2.00745 4.40708ZM6.38265 5.68185C5.78363 4.60851 4.17394 4.36191 3.06811 5.46774C2.29276 6.24309 1.7887 7.0989 1.75599 7.96168C1.6902 9.69702 2.11864 12.7228 5.19801 15.8021C8.27737 18.8815 11.3031 19.31 13.0385 19.2442C13.9013 19.2115 14.7571 18.7074 15.5324 17.932C16.6382 16.8262 16.3916 15.2165 15.3183 14.6175L14.1554 13.9685C13.432 13.5648 12.4158 13.7025 11.7025 14.4158C11.6325 14.4858 11.1864 14.902 10.395 14.9405C9.58474 14.9799 8.604 14.6158 7.49416 13.506C6.38395 12.3958 6.02003 11.4148 6.0597 10.6045C6.09846 9.81294 6.51468 9.36733 6.58432 9.29768C7.29764 8.58436 7.43539 7.56819 7.03166 6.84478L6.38265 5.68185Z" fill="#1C274C"/>
</mask>
<g mask="url(#mask0_1066_1103)">
<rect x="-1" width="21" height="21" fill="white"/>
</g>
</svg>
