<svg width="42" height="42" viewBox="0 0 42 42" fill="none" xmlns="http://www.w3.org/2000/svg">
<circle cx="21" cy="21" r="21" fill="white"/>
<path d="M23.6 13.7202C21.7272 13.7202 19.96 14.6505 18.92 16.1577V26.7202H30.1C32.2328 26.7202 34 24.953 34 22.8202C34 20.6874 32.2328 18.9202 30.1 18.9202C29.84 18.9202 29.58 18.9649 29.32 19.0177C29.06 16.0541 26.6164 13.7202 23.6 13.7202ZM16.84 16.3202C16.4764 16.3202 16.1128 16.3649 15.8 16.4177V26.7202H16.84V16.3202ZM17.36 16.3202V26.7202H18.4V16.5802C18.0872 16.4766 17.7236 16.373 17.36 16.3202ZM15.28 16.5802C14.9164 16.7366 14.5528 16.893 14.24 17.1002V26.7202H15.28V16.5802ZM13.72 17.5227C13.3036 17.8863 12.94 18.3515 12.68 18.8715V26.7202H13.72V17.5227ZM11.38 19.4402C11.2886 19.4463 11.1972 19.4626 11.12 19.489V26.6715C11.2764 26.7243 11.4836 26.7202 11.64 26.7202H12.16V19.489C12.0036 19.4362 11.7964 19.4402 11.64 19.4402C11.5628 19.4402 11.4714 19.4341 11.38 19.4402ZM10.6 19.6027C10.2364 19.7063 9.87281 19.8627 9.56 20.1227V26.0377C9.87281 26.2449 10.2364 26.4541 10.6 26.5577V19.6027ZM9.04 20.529C8.41641 21.2054 8 22.093 8 23.0802C8 24.0674 8.41641 24.9551 9.04 25.6315V20.529Z" fill="#230123"/>
</svg>
