<svg width="42" height="42" viewBox="0 0 42 42" fill="none" xmlns="http://www.w3.org/2000/svg">
<circle cx="21" cy="21" r="21" fill="white"/>
<path d="M32.2452 14.8299C32.03 13.6423 31.0048 12.7774 29.8152 12.5074C28.0348 12.1299 24.74 11.8599 21.1752 11.8599C17.6124 11.8599 14.2648 12.1299 12.4824 12.5074C11.2948 12.7774 10.2676 13.5874 10.0524 14.8299C9.83515 16.1799 9.62 18.0699 9.62 20.4999C9.62 22.9299 9.83515 24.8199 10.1052 26.1699C10.3224 27.3574 11.3476 28.2223 12.5352 28.4923C14.4252 28.8699 17.6652 29.1399 21.23 29.1399C24.7948 29.1399 28.0348 28.8699 29.9248 28.4923C31.1124 28.2223 32.1376 27.4123 32.3548 26.1699C32.57 24.8199 32.84 22.875 32.8948 20.4999C32.7852 18.0699 32.5152 16.1799 32.2452 14.8299ZM18.26 24.2799V16.7199L24.8476 20.4999L18.26 24.2799Z" fill="#230123"/>
</svg>
