<svg width="337" height="134" viewBox="0 0 337 134" fill="none" xmlns="http://www.w3.org/2000/svg">
<path d="M299.594 94.1089V71.1692C299.594 69.5123 300.937 68.1692 302.594 68.1692H306.338C307.448 68.1692 308.466 68.7814 308.987 69.761L315.382 81.7902C316.51 83.9127 319.552 83.9127 320.68 81.7902L327.074 69.761C327.595 68.7814 328.614 68.1692 329.723 68.1692H333.467C335.124 68.1692 336.467 69.5123 336.467 71.1692V94.1089C336.467 95.7658 335.124 97.1089 333.467 97.1089H330.6C329.12 97.1089 327.921 95.9093 327.921 94.4295C327.921 91.6217 324.151 90.7046 322.861 93.1987L321.678 95.4869C321.163 96.4832 320.135 97.1089 319.013 97.1089H317.264C316.158 97.1089 315.141 96.4998 314.619 95.524L313.306 93.0695C311.959 90.5516 308.141 91.5087 308.141 94.3642C308.141 95.8801 306.912 97.1089 305.396 97.1089H302.594C300.937 97.1089 299.594 95.7658 299.594 94.1089Z" fill="white"/>
<path d="M233.53 94.1089V71.1692C233.53 69.5123 234.873 68.1692 236.53 68.1692H255.419C257.076 68.1692 258.419 69.5123 258.419 71.1692V72.5649C258.419 74.2218 257.076 75.5649 255.419 75.5649H243.35C242.387 75.5649 241.607 76.3453 241.607 77.308C241.607 78.2677 242.383 79.0468 243.342 79.051L252.052 79.089C253.704 79.0962 255.039 80.4372 255.039 82.0889V83.1761C255.039 84.833 253.696 86.1761 252.039 86.1761H243.375C242.399 86.1761 241.607 86.9679 241.607 87.9447C241.607 88.9214 242.399 89.7132 243.375 89.7132H255.419C257.076 89.7132 258.419 91.0564 258.419 92.7132V94.1089C258.419 95.7658 257.076 97.1089 255.419 97.1089H236.53C234.873 97.1089 233.53 95.7658 233.53 94.1089Z" fill="white"/>
<path d="M271.632 94.1089V71.1692C271.632 69.5123 272.975 68.1692 274.632 68.1692H293.522C295.179 68.1692 296.522 69.5123 296.522 71.1692V72.5649C296.522 74.2218 295.179 75.5649 293.522 75.5649H282.201C280.825 75.5649 279.709 76.6806 279.709 78.0569C279.709 79.4333 280.825 80.549 282.201 80.549H290.142C291.799 80.549 293.142 81.8921 293.142 83.549V84.4624C293.142 86.1192 291.799 87.4624 290.142 87.4624H282.709C281.052 87.4624 279.709 88.8055 279.709 90.4624V94.1089C279.709 95.7658 278.366 97.1089 276.709 97.1089H274.632C272.975 97.1089 271.632 95.7658 271.632 94.1089Z" fill="white"/>
<path d="M9.349 68.1693H5.43438C3.07352 68.1693 1.63776 70.7702 2.89577 72.7679L11.8025 86.912C12.1039 87.3908 12.2639 87.9449 12.2639 88.5106V94.1091C12.2639 95.7659 13.607 97.1091 15.2639 97.1091H18.387C20.0438 97.1091 21.387 95.7659 21.387 94.1091V88.5195C21.387 87.9482 21.5501 87.3888 21.8572 86.9071L30.8604 72.7818C32.1334 70.7847 30.6989 68.1693 28.3306 68.1693H24.4514C23.3869 68.1693 22.4022 68.7334 21.8636 69.6516L19.4879 73.7021C18.3288 75.6785 15.4716 75.6785 14.3124 73.7021L11.9367 69.6516C11.3982 68.7334 10.4135 68.1693 9.349 68.1693Z" fill="white"/>
<path d="M69.7517 71.1692C69.7517 69.5123 71.0949 68.1692 72.7517 68.1692H77.8494C78.7963 68.1692 79.6876 68.6162 80.2539 69.3752L86.4327 77.6565C88.159 79.9703 91.8372 78.7493 91.8372 75.8625V71.1692C91.8372 69.5123 93.1803 68.1692 94.8372 68.1692H97.4793C99.1362 68.1692 100.479 69.5123 100.479 71.1692V82.6391V83.5434V84.4478V84.9V85.3522V86.2565V89.874V94.1089C100.479 95.7658 99.1362 97.1089 97.4793 97.1089H93.3419C92.395 97.1089 91.5036 96.6619 90.9374 95.903L84.7586 87.6216C83.0322 85.3079 79.3541 86.5288 79.3541 89.4157V94.1089C79.3541 95.7658 78.0109 97.1089 76.3541 97.1089H72.7517C71.0949 97.1089 69.7517 95.7658 69.7517 94.1089V82.6391V81.7347V80.8303V80.3781V79.926V79.0216V75.4041V71.1692Z" fill="white"/>
<path d="M199.177 71.1125C199.177 69.4556 200.521 68.1125 202.177 68.1125H207.275C208.222 68.1125 209.113 68.5595 209.68 69.3184L215.858 77.5998C217.585 79.9135 221.263 78.6926 221.263 75.8057V71.1125C221.263 69.4556 222.606 68.1125 224.263 68.1125H226.905C228.562 68.1125 229.905 69.4556 229.905 71.1125V82.5823V83.4867V84.3911V84.8433V85.2954V86.1998V89.8173V94.0522C229.905 95.7091 228.562 97.0522 226.905 97.0522H222.768C221.821 97.0522 220.929 96.6052 220.363 95.8462L214.184 87.5649C212.458 85.2511 208.78 86.4721 208.78 89.3589V94.0522C208.78 95.7091 207.437 97.0522 205.78 97.0522H202.177C200.521 97.0522 199.177 95.7091 199.177 94.0522V82.5823V81.678V80.7736V80.3214V79.8692V78.9649V75.3474V71.1125Z" fill="white"/>
<path d="M103.552 71.1692C103.552 69.5123 104.895 68.1692 106.552 68.1692H111.848H120.222H125.134C126.791 68.1692 128.134 69.5123 128.134 71.1692V72.4041C128.134 74.061 126.791 75.4041 125.134 75.4041H123.222C121.565 75.4041 120.222 76.7473 120.222 78.4041V94.1089C120.222 95.7658 118.879 97.1089 117.222 97.1089H114.848C113.192 97.1089 111.848 95.7658 111.848 94.1089V78.4041C111.848 76.7473 110.505 75.4041 108.848 75.4041H106.552C104.895 75.4041 103.552 74.061 103.552 72.4041V71.1692Z" fill="white"/>
<path fill-rule="evenodd" clip-rule="evenodd" d="M167.391 68.1692C165.734 68.1692 164.393 69.5123 164.393 71.1692V94.1089C164.393 95.7658 165.736 97.1089 167.393 97.1089H170.135C171.791 97.1089 173.135 95.7658 173.135 94.1089V90.0928C173.135 88.6163 174.332 87.4193 175.808 87.4193V87.4193C175.808 87.4193 175.808 87.4193 175.808 87.4193C175.808 87.4193 177.694 87.4193 178.802 87.4193C180.995 87.4193 184.807 92.9551 186.538 95.6582C187.109 96.5511 188.089 97.1089 189.149 97.1089H192.784C194.745 97.1089 196.073 95.2792 195.13 93.5593C194.134 91.7416 192.556 89.4338 190.134 87.1464C189.43 86.4818 189.489 85.3125 190.243 84.7062V84.7062C191.002 84.0964 191.469 83.721 192.094 83.0266C192.66 82.3978 192.968 82.0331 193.328 81.3471C193.713 80.6143 193.945 79.4095 193.945 79.4092C193.945 79.4092 193.945 79.4092 193.945 79.4092C193.945 79.4088 194.157 78.3085 194.151 77.6004C194.145 76.9426 194.103 76.5713 193.945 75.9209C193.784 75.2554 193.655 74.8824 193.328 74.2414C192.955 73.5095 192.672 73.1099 192.094 72.4326C191.599 71.8529 191.212 71.3913 190.511 70.9024C189.823 70.4222 189.448 70.1359 188.668 69.777C187.931 69.4383 186.824 68.9731 186.824 68.9731C186.824 68.9731 185.582 68.5747 184.98 68.4907C184.534 68.4285 183.767 68.3319 183.49 68.2984C183.24 68.2682 182.669 68.2227 182.52 68.211C182.496 68.2091 182.472 68.2076 182.448 68.2064C182.297 68.1986 181.705 68.1692 181.447 68.1692C176.597 68.1692 170.823 68.1692 167.391 68.1692ZM181.319 75.0378C181.21 75.0224 181.1 75.0165 180.989 75.0165H175.912C174.378 75.0165 173.135 76.2602 173.135 77.7942V77.7942C173.135 79.3283 174.378 80.5719 175.912 80.5719H180.941C181.083 80.5719 181.226 80.562 181.367 80.5381C181.701 80.4815 182.358 80.3566 182.8 80.1844C183.219 80.0215 183.497 79.9723 183.829 79.6676C184.018 79.4935 184.119 79.3794 184.24 79.1508C184.409 78.8311 184.406 78.6066 184.446 78.2464C184.484 77.8954 184.494 77.6918 184.446 77.3421C184.403 77.0316 184.386 76.8434 184.24 76.5669C184.119 76.3383 184.012 76.2314 183.829 76.0501C183.491 75.7156 183.232 75.5989 182.8 75.4041C182.345 75.1986 181.637 75.0822 181.319 75.0378Z" fill="white"/>
<path d="M261.492 92.7133C261.492 91.0565 262.835 89.7133 264.492 89.7133H265.56C267.216 89.7133 268.56 91.0565 268.56 92.7133V94.109C268.56 95.7659 267.216 97.109 265.56 97.109H264.492C262.835 97.109 261.492 95.7659 261.492 94.109V92.7133Z" fill="white"/>
<mask id="mask0_363_719" style="mask-type:alpha" maskUnits="userSpaceOnUse" x="36" y="0" width="126" height="103">
<path d="M58.7133 24.5989C57.1744 23.1413 56.9763 20.7446 58.3697 19.1474C63.3392 13.451 69.2431 8.83987 75.7759 5.56846C83.3787 1.76119 91.6456 -0.137566 99.9864 0.00775365C108.327 0.153074 116.536 2.33888 124.028 6.40914C130.47 9.90943 136.244 14.7291 141.053 20.6024C142.392 22.2389 142.12 24.6231 140.539 26.0279V26.0279C138.715 27.6484 135.9 27.3267 134.306 25.4796C130.352 20.8968 125.693 17.1126 120.537 14.3111C114.095 10.8107 107.035 8.93089 99.8618 8.80592C92.6887 8.68094 85.5791 10.3139 79.0407 13.5881C73.8178 16.2036 69.0621 19.815 64.9851 24.2462C63.3267 26.0486 60.4915 26.2833 58.7133 24.5989V24.5989Z" fill="#CC0100"/>
<path d="M43.9468 52.9766C46.9121 38.3977 54.0645 25.4293 64.2239 16.2107C74.3832 6.99207 86.9427 2.07411 99.8302 2.26813C112.718 2.46215 125.163 7.75655 135.114 17.2779C145.065 26.7992 151.926 39.9787 154.565 54.6419L151.237 55.4513C148.756 41.6678 142.306 29.2792 132.953 20.3291C123.599 11.379 111.9 6.4023 99.7862 6.21992C87.6719 6.03754 75.866 10.6604 66.3162 19.3259C56.7664 27.9914 50.0432 40.1817 47.2558 53.8859L43.9468 52.9766Z" fill="#CC0100"/>
<path d="M49.5671 55.2781C49.5672 52.1355 62.6012 52.1355 62.6012 55.2781C62.6012 67.9113 62.6012 89.9023 62.6012 99.9029C62.6012 103.045 49.5672 103.045 49.5671 99.9029C49.5671 89.5323 49.5671 68.1627 49.5671 55.2781Z" fill="#CC0100"/>
<path d="M36.873 67.9089C36.873 62.9638 40.8818 58.955 45.8269 58.955V58.955C50.7719 58.955 54.7807 62.9638 54.7807 67.9089V87.0838C54.7807 92.0288 50.7719 96.0376 45.8269 96.0376V96.0376C40.8818 96.0376 36.873 92.0288 36.873 87.0838V67.9089Z" fill="#CC0100"/>
<path d="M42.4265 56.0864C42.4265 53.0193 44.913 50.5328 47.9802 50.5328V50.5328V62.7261H42.4265V56.0864Z" fill="#CC0100"/>
<path d="M148.626 55.2781C148.626 52.1355 135.592 52.1355 135.592 55.2781C135.592 67.9113 135.592 89.9023 135.592 99.9029C135.592 103.045 148.626 103.045 148.626 99.9029C148.626 89.5323 148.626 68.1627 148.626 55.2781Z" fill="#CC0100"/>
<path d="M161.32 67.9089C161.32 62.9638 157.311 58.955 152.366 58.955V58.955C147.421 58.955 143.412 62.9638 143.412 67.9089V87.0838C143.412 92.0288 147.421 96.0376 152.366 96.0376V96.0376C157.311 96.0376 161.32 92.0288 161.32 87.0838V67.9089Z" fill="#CC0100"/>
<path d="M155.766 56.0864C155.766 53.0193 153.28 50.5328 150.213 50.5328V50.5328V62.7261H155.766V56.0864Z" fill="#CC0100"/>
</mask>
<g mask="url(#mask0_363_719)">
<rect x="30" y="-7" width="134" height="123" fill="#FF344D"/>
</g>
</svg>
