<svg width="127" height="127" viewBox="0 0 127 127" fill="none" xmlns="http://www.w3.org/2000/svg">
<path d="M14.3722 85.3326C15.3291 93.5194 19.7038 100.92 26.4152 105.705C31.3602 109.23 37.2819 111.125 43.355 111.125H62.4784C68.5515 111.125 74.4732 109.23 79.4182 105.705C86.1296 100.92 90.5043 93.5194 91.4612 85.3326L93.5814 67.1925C93.8457 64.9318 93.9778 63.8015 93.9222 62.8696C93.6307 57.9848 90.0282 53.9367 85.2103 53.0801C84.2912 52.9167 83.1531 52.9167 80.8771 52.9167H24.9563C22.6803 52.9167 21.5422 52.9167 20.6231 53.0801C15.8052 53.9367 12.2027 57.9848 11.9112 62.8696C11.8556 63.8015 11.9877 64.9318 12.252 67.1925" stroke="#333333" stroke-width="5" stroke-linecap="round"/>
<path d="M89.9584 89.9583H100.542C109.309 89.9583 116.417 82.8508 116.417 74.0833C116.417 65.3158 109.309 58.2083 100.542 58.2083H92.6042" stroke="#333333" stroke-width="5"/>
<path d="M52.9175 10.5833C49.995 13.5058 49.995 18.2441 52.9175 21.1666C55.84 24.0892 55.84 28.8275 52.9175 31.75" stroke="#333333" stroke-width="3" stroke-linecap="round" stroke-linejoin="round"/>
<path d="M26.4584 39.6875L27.0728 39.073C29.7566 36.3893 30.0585 32.1405 27.7813 29.1041C25.504 26.0678 25.806 21.819 28.4897 19.1353L29.1042 18.5208" stroke="#333333" stroke-width="3" stroke-linecap="round" stroke-linejoin="round"/>
<path d="M76.7291 39.6875L77.3436 39.073C80.0273 36.3893 80.3293 32.1405 78.052 29.1041C75.7748 26.0678 76.0767 21.819 78.7605 19.1353L79.3749 18.5208" stroke="#333333" stroke-width="3" stroke-linecap="round" stroke-linejoin="round"/>
</svg>
