<svg width="111" height="111" viewBox="0 0 111 111" fill="none" xmlns="http://www.w3.org/2000/svg">
<path d="M92.8791 13.9575L92.9662 16.456L92.9662 16.456L92.8791 13.9575ZM76.3125 16.1299L75.5955 13.7349L75.5955 13.7349L76.3125 16.1299ZM63.2415 22.2132L61.9892 20.0494L61.9892 20.0494L63.2415 22.2132ZM18.4186 14.2218L18.2652 16.7171L18.4186 14.2218ZM32.375 16.1299L33.0129 13.7126L33.0129 13.7126L32.375 16.1299ZM47.5554 22.5494L46.3868 24.7595L46.3868 24.7595L47.5554 22.5494ZM63.0276 92.8207L64.2036 95.0268L64.2036 95.0268L63.0276 92.8207ZM78.625 86.1797L77.9871 83.7625L77.9871 83.7625L78.625 86.1797ZM92.4313 84.281L92.5873 86.7761L92.5873 86.7761L92.4313 84.281ZM47.9724 92.8207L46.7964 95.0268L46.7964 95.0268L47.9724 92.8207ZM32.375 86.1797L33.0129 83.7625L33.0129 83.7625L32.375 86.1797ZM18.5687 84.281L18.4127 86.7761L18.4127 86.7761L18.5687 84.281ZM11.75 74.6645V23.1153H6.75V74.6645H11.75ZM104.25 74.6645V22.8164H99.25V74.6645H104.25ZM92.7921 11.459C87.5399 11.642 80.7633 12.1878 75.5955 13.7349L77.0295 18.5248C81.5456 17.1728 87.779 16.6367 92.9662 16.456L92.7921 11.459ZM75.5955 13.7349C71.1063 15.0788 66.0103 17.7223 61.9892 20.0494L64.4938 24.3769C68.4413 22.0923 73.1231 19.6943 77.0295 18.5248L75.5955 13.7349ZM18.2652 16.7171C22.7463 16.9925 27.8847 17.5305 31.7371 18.5471L33.0129 13.7126C28.6651 12.5653 23.1223 12.0062 18.572 11.7265L18.2652 16.7171ZM31.7371 18.5471C36.2994 19.751 41.857 22.3642 46.3868 24.7595L48.724 20.3394C44.132 17.9112 38.1558 15.0697 33.0129 13.7126L31.7371 18.5471ZM64.2036 95.0268C68.798 92.5778 74.5575 89.8386 79.2629 88.597L77.9871 83.7625C72.6891 85.1605 66.5024 88.1354 61.8516 90.6145L64.2036 95.0268ZM79.2629 88.597C83.0719 87.5918 88.1393 87.0543 92.5873 86.7761L92.2752 81.7858C87.7561 82.0685 82.2877 82.6276 77.9871 83.7625L79.2629 88.597ZM49.1484 90.6145C44.4976 88.1354 38.3109 85.1605 33.0129 83.7625L31.7371 88.597C36.4425 89.8386 42.202 92.5778 46.7964 95.0268L49.1484 90.6145ZM33.0129 83.7625C28.7123 82.6276 23.2439 82.0685 18.7248 81.7858L18.4127 86.7761C22.8607 87.0543 27.9281 87.5918 31.7371 88.597L33.0129 83.7625ZM99.25 74.6645C99.25 78.3853 96.1853 81.5413 92.2752 81.7858L92.5873 86.7761C98.9337 86.3791 104.25 81.2202 104.25 74.6645H99.25ZM104.25 22.8164C104.25 16.5535 99.2726 11.2333 92.7921 11.459L92.9662 16.456C96.3998 16.3364 99.25 19.1592 99.25 22.8164H104.25ZM6.75 74.6645C6.75 81.2202 12.0663 86.3791 18.4127 86.7761L18.7248 81.7858C14.8147 81.5413 11.75 78.3853 11.75 74.6645H6.75ZM61.8516 90.6145C57.9025 92.7196 53.0975 92.7196 49.1484 90.6145L46.7964 95.0268C52.2156 97.9155 58.7844 97.9155 64.2036 95.0268L61.8516 90.6145ZM61.9892 20.0494C57.9212 22.4038 52.8566 22.5246 48.724 20.3394L46.3868 24.7595C52.0641 27.7615 58.9575 27.581 64.4938 24.3769L61.9892 20.0494ZM11.75 23.1153C11.75 19.3728 14.7362 16.5002 18.2652 16.7171L18.572 11.7265C11.962 11.3202 6.75 16.6996 6.75 23.1153H11.75Z" fill="#1C274D"/>
<path d="M55.5 27.0748V97.1246" stroke="#1C274D" stroke-width="5"/>
<path d="M23.125 41.625L41.625 46.25" stroke="#1C274D" stroke-width="3" stroke-linecap="round"/>
<path d="M23.125 60.125L41.625 64.75" stroke="#1C274D" stroke-width="3" stroke-linecap="round"/>
<path d="M87.875 60.125L69.375 64.75" stroke="#1C274D" stroke-width="3" stroke-linecap="round"/>
<path d="M87.875 25.4375V43.9851C87.875 45.2597 87.875 45.8969 87.4363 46.1545C86.9976 46.4121 86.3976 46.1271 85.1977 45.5571L79.4523 42.828C79.0464 42.6352 78.8434 42.5387 78.625 42.5387C78.4066 42.5387 78.2036 42.6352 77.7977 42.828L72.0523 45.5571C70.8524 46.1271 70.2524 46.4121 69.8137 46.1545C69.375 45.8969 69.375 45.2597 69.375 43.9851V32.1438" stroke="#1C274D" stroke-width="3" stroke-linecap="round"/>
</svg>
