<svg width="116" height="116" viewBox="0 0 116 116" fill="none" xmlns="http://www.w3.org/2000/svg">
<circle cx="48.3333" cy="29" r="19.3333" stroke="#1C274C" stroke-width="4"/>
<path d="M87 84.5834C87 96.5956 87 106.333 48.3333 106.333C9.66663 106.333 9.66663 96.5956 9.66663 84.5834C9.66663 72.5712 26.9783 62.8334 48.3333 62.8334C69.6883 62.8334 87 72.5712 87 84.5834Z" stroke="#1C274C" stroke-width="4"/>
<path d="M87.4279 60.6025L88.3379 59.4101L87.4279 60.6025ZM91.8334 41.7771L90.7696 42.8347C91.0512 43.1179 91.434 43.2771 91.8334 43.2771C92.2327 43.2771 92.6156 43.1179 92.8971 42.8347L91.8334 41.7771ZM96.2389 60.6025L95.3288 59.4101L96.2389 60.6025ZM88.3379 59.4101C86.1146 57.7133 83.7589 56.1089 81.8861 54.0673C80.0649 52.0818 78.8334 49.811 78.8334 46.882H75.8334C75.8334 50.7797 77.5159 53.7411 79.6754 56.0952C81.7832 58.3931 84.4748 60.2357 86.5178 61.7949L88.3379 59.4101ZM78.8334 46.882C78.8334 44.0572 80.4818 41.6811 82.7436 40.6801C84.923 39.7157 87.8957 39.9439 90.7696 42.8347L92.8971 40.7196C89.2463 37.0473 84.969 36.4147 81.5296 37.9368C78.1726 39.4224 75.8334 42.8803 75.8334 46.882H78.8334ZM86.5178 61.7949C87.257 62.3591 88.0765 62.9812 88.9128 63.4544C89.7498 63.9279 90.7397 64.3334 91.8334 64.3334V61.3334C91.4771 61.3334 91.0169 61.1979 90.39 60.8433C89.7625 60.4883 89.1042 59.995 88.3379 59.4101L86.5178 61.7949ZM97.1489 61.7949C99.192 60.2357 101.883 58.3931 103.991 56.0952C106.151 53.7411 107.833 50.7797 107.833 46.882H104.833C104.833 49.811 103.602 52.0818 101.781 54.0673C99.9078 56.1089 97.5521 57.7133 95.3288 59.4101L97.1489 61.7949ZM107.833 46.882C107.833 42.8803 105.494 39.4224 102.137 37.9368C98.6977 36.4147 94.4204 37.0473 90.7696 40.7196L92.8971 42.8347C95.7711 39.9439 98.7438 39.7157 100.923 40.6801C103.185 41.6811 104.833 44.0572 104.833 46.882H107.833ZM95.3288 59.4101C94.5625 59.995 93.9042 60.4883 93.2767 60.8433C92.6498 61.1979 92.1897 61.3334 91.8334 61.3334V64.3334C92.9271 64.3334 93.9169 63.9279 94.7539 63.4544C95.5903 62.9812 96.4097 62.3591 97.1489 61.7949L95.3288 59.4101Z" fill="#1C274C"/>
</svg>
