<svg width="219" height="139" viewBox="0 0 219 139" fill="none" xmlns="http://www.w3.org/2000/svg">
<path d="M116.037 6.62473C102.538 5.75473 89.0011 7.5519 76.1975 11.9137C63.3939 16.2754 51.5748 23.1163 41.415 32.0457C31.2552 40.9752 22.9536 51.8183 16.9844 63.956C11.0151 76.0938 7.49493 89.2884 6.62493 102.787C5.75493 116.285 7.55211 129.822 11.9139 142.626C16.2756 155.429 23.1165 167.248 32.0459 177.408C40.9754 187.568 51.8185 195.869 63.9562 201.839C76.094 207.808 89.2886 211.328 102.787 212.198L109.412 109.411L116.037 6.62473Z" fill="#191919"/>
<path d="M102.532 211.594C116.068 212.466 129.643 210.687 142.48 206.357C155.317 202.027 167.166 195.231 177.349 186.358C187.533 177.484 195.852 166.707 201.831 154.641C207.811 142.576 211.333 129.458 212.198 116.036C213.064 102.615 211.254 89.1536 206.873 76.4201C202.492 63.6866 195.625 51.9307 186.665 41.8235C177.705 31.7163 166.827 23.4559 154.652 17.5137C142.476 11.5716 129.243 8.06412 115.706 7.19164" stroke="#191919" stroke-dasharray="4 4"/>
<path d="M102.909 205.737C115.677 206.56 128.48 204.875 140.589 200.779C152.698 196.683 163.874 190.255 173.48 181.863C183.087 173.472 190.935 163.28 196.576 151.871C202.218 140.461 205.543 128.057 206.361 115.366C207.178 102.676 205.474 89.9471 201.343 77.9077C197.213 65.8682 190.739 54.7535 182.289 45.198C173.839 35.6425 163.58 27.8335 152.098 22.2168C140.615 16.6 128.134 13.2856 115.366 12.4627" stroke="#191919" stroke-dasharray="4 4"/>
<path d="M103.287 199.88C115.285 200.654 127.317 199.071 138.696 195.224C150.075 191.376 160.578 185.338 169.606 177.455C178.633 169.572 186.008 159.999 191.31 149.281C196.611 138.563 199.735 126.91 200.504 114.989C201.272 103.067 199.67 91.1103 195.788 79.8004C191.906 68.4905 185.821 58.0492 177.881 49.0726C169.94 40.0961 160.299 32.7601 149.508 27.4835C138.717 22.2069 126.987 19.093 114.989 18.3197" stroke="#191919" stroke-dasharray="4 4"/>
<path d="M103.664 194.023C114.893 194.747 126.154 193.267 136.804 189.668C147.453 186.069 157.283 180.421 165.732 173.047C174.18 165.673 181.082 156.717 186.043 146.69C191.005 136.664 193.928 125.763 194.647 114.611C195.366 103.459 193.866 92.273 190.233 81.6927C186.6 71.1123 180.904 61.3444 173.472 52.9468C166.04 44.5491 157.017 37.6861 146.918 32.7497C136.818 27.8132 125.841 24.8999 114.611 24.1762" stroke="#191919" stroke-dasharray="4 4"/>
<path d="M104.042 188.167C114.502 188.841 124.991 187.463 134.911 184.113C144.831 180.762 153.987 175.504 161.857 168.639C169.727 161.773 176.156 153.435 180.777 144.1C185.398 134.766 188.121 124.617 188.79 114.234C189.459 103.851 188.062 93.4362 184.677 83.5854C181.293 73.7346 175.987 64.6402 169.064 56.8214C162.141 49.0027 153.735 42.6127 144.328 38.0164C134.92 33.42 124.694 30.7073 114.234 30.0331" stroke="#191919" stroke-dasharray="4 4"/>
<path d="M104.419 182.31C114.11 182.935 123.828 181.659 133.019 178.557C142.209 175.455 150.692 170.587 157.983 164.231C165.273 157.874 171.229 150.154 175.51 141.511C179.791 132.867 182.314 123.47 182.933 113.856C183.553 104.242 182.258 94.5994 179.122 85.4781C175.986 76.3569 171.07 67.9359 164.656 60.6961C158.241 53.4562 150.454 47.5393 141.738 43.2831C133.022 39.0269 123.547 36.5147 113.857 35.8901" stroke="#191919" stroke-dasharray="4 4"/>
<path d="M104.797 176.453C113.719 177.028 122.665 175.855 131.126 173.002C139.587 170.148 147.396 165.67 154.108 159.822C160.82 153.974 166.303 146.872 170.244 138.92C174.185 130.969 176.507 122.324 177.077 113.479C177.647 104.634 176.454 95.7621 173.566 87.3704C170.679 78.9786 166.153 71.2311 160.247 64.5702C154.342 57.9093 147.172 52.4654 139.148 48.5493C131.123 44.6332 122.401 42.3217 113.479 41.7466" stroke="#191919" stroke-dasharray="4 4"/>
<path d="M105.174 170.596C113.327 171.122 121.502 170.051 129.234 167.446C136.965 164.841 144.101 160.753 150.234 155.414C156.367 150.075 161.376 143.59 164.977 136.33C168.578 129.07 170.699 121.177 171.22 113.101C171.74 105.025 170.65 96.9253 168.011 89.2631C165.372 81.6009 161.236 74.5269 155.839 68.4449C150.442 62.3628 143.89 57.3919 136.557 53.816C129.224 50.24 121.254 48.1291 113.101 47.6036" stroke="#191919" stroke-dasharray="4 4"/>
<path d="M105.552 164.74C112.935 165.216 120.339 164.248 127.341 161.891C134.343 159.535 140.805 155.836 146.359 151.006C151.913 146.176 156.45 140.309 159.711 133.74C162.971 127.172 164.892 120.031 165.363 112.724C165.834 105.417 164.846 98.0884 162.456 91.1558C160.065 84.2232 156.319 77.8226 151.431 72.3195C146.543 66.8164 140.609 62.3185 133.967 59.0827C127.326 55.8469 120.108 53.9365 112.724 53.4606" stroke="#191919" stroke-dasharray="4 4"/>
<path d="M105.929 158.883C112.544 159.309 119.176 158.443 125.449 156.335C131.721 154.227 137.51 150.918 142.485 146.597C147.46 142.276 151.524 137.027 154.444 131.15C157.365 125.273 159.085 118.884 159.506 112.346C159.928 105.809 159.042 99.2511 156.9 93.0481C154.758 86.845 151.402 81.1179 147.022 76.1937C142.643 71.2694 137.327 67.2446 131.377 64.3489C125.428 61.4532 118.961 59.7434 112.346 59.3171" stroke="#191919" stroke-dasharray="4 4"/>
<path d="M106.307 153.026C112.152 153.403 118.013 152.64 123.556 150.78C129.099 148.921 134.214 146.001 138.61 142.189C143.007 138.376 146.597 133.745 149.178 128.56C151.758 123.375 153.278 117.737 153.65 111.969C154.021 106.2 153.238 100.414 151.345 94.9408C149.451 89.4673 146.485 84.4136 142.614 80.0683C138.744 75.723 134.046 72.1712 128.787 69.6156C123.529 67.06 117.814 65.5508 111.969 65.1741" stroke="#191919" stroke-dasharray="4 4"/>
<path d="M106.684 147.169C111.76 147.496 116.85 146.835 121.663 145.224C126.477 143.614 130.919 141.084 134.736 137.78C138.553 134.477 141.671 130.463 143.911 125.97C146.152 121.476 147.47 116.59 147.793 111.591C148.115 106.592 147.434 101.577 145.789 96.833C144.144 92.0891 141.568 87.7088 138.206 83.9424C134.844 80.176 130.764 77.0972 126.197 74.8818C121.631 72.6664 116.668 71.3577 111.592 71.0305" stroke="#191919" stroke-dasharray="4 4"/>
<path d="M107.062 141.312C111.369 141.59 115.687 141.032 119.771 139.669C123.854 138.307 127.623 136.167 130.861 133.372C134.1 130.577 136.744 127.182 138.645 123.38C140.545 119.578 141.663 115.444 141.936 111.214C142.208 106.984 141.63 102.74 140.234 98.7258C138.837 94.7114 136.65 91.0046 133.798 87.8171C130.945 84.6296 127.482 82.0238 123.607 80.1485C119.732 78.2732 115.521 77.1651 111.214 76.8875" stroke="#191919" stroke-dasharray="4 4"/>
<path d="M107.439 135.456C110.977 135.684 114.524 135.228 117.878 134.114C121.232 133 124.328 131.25 126.987 128.964C129.647 126.678 131.818 123.901 133.378 120.79C134.938 117.68 135.856 114.298 136.079 110.837C136.302 107.375 135.826 103.903 134.678 100.619C133.531 97.3336 131.733 94.3003 129.389 91.6917C127.045 89.0831 124.201 86.9504 121.017 85.4152C117.834 83.88 114.375 82.9725 110.837 82.7445" stroke="#191919" stroke-dasharray="4 4"/>
<path d="M107.817 129.599C110.585 129.777 113.361 129.424 115.986 128.558C118.61 127.693 121.032 126.333 123.113 124.556C125.193 122.778 126.892 120.619 128.112 118.2C129.332 115.781 130.049 113.151 130.222 110.459C130.396 107.767 130.022 105.066 129.123 102.511C128.224 99.9554 126.816 97.5956 124.981 95.5659C123.146 93.5362 120.919 91.8765 118.427 90.6814C115.935 89.4864 113.228 88.7795 110.459 88.601" stroke="#191919" stroke-dasharray="4 4"/>
<path d="M108.194 123.742C110.194 123.871 112.198 123.62 114.093 123.003C115.988 122.386 117.736 121.416 119.238 120.147C120.74 118.879 121.965 117.337 122.845 115.61C123.725 113.883 124.241 112.004 124.365 110.081C124.489 108.159 124.218 106.229 123.567 104.403C122.917 102.578 121.899 100.891 120.573 99.4405C119.246 97.9898 117.637 96.803 115.837 95.9481C114.037 95.0932 112.081 94.5869 110.081 94.458" stroke="#191919" stroke-dasharray="4 4"/>
<path d="M108.572 117.885C109.802 117.964 111.035 117.815 112.201 117.447C113.366 117.079 114.441 116.499 115.364 115.739C116.286 114.979 117.039 114.055 117.579 113.02C118.118 111.984 118.434 110.857 118.509 109.704C118.583 108.55 118.414 107.392 118.012 106.296C117.61 105.2 116.982 104.187 116.164 103.315C115.347 102.443 114.356 101.729 113.247 101.214C112.139 100.7 110.935 100.394 109.704 100.314" stroke="#191919" stroke-dasharray="4 4"/>
</svg>
