<svg width="311" height="92" viewBox="0 0 311 92" fill="none" xmlns="http://www.w3.org/2000/svg">
<mask id="path-1-inside-1_875_1134" fill="white">
<path fill-rule="evenodd" clip-rule="evenodd" d="M311 8C311 3.58172 307.418 0 303 0H8C3.58172 0 0 3.58172 0 8V69C0 73.4183 3.58173 77 8.00001 77H135.843C138.209 77 140.454 78.0477 141.974 79.8613L149.369 88.6841C152.566 92.4992 158.434 92.4992 161.631 88.6841L169.026 79.8613C170.546 78.0477 172.791 77 175.157 77H303C307.418 77 311 73.4183 311 69V8Z"/>
</mask>
<path fill-rule="evenodd" clip-rule="evenodd" d="M311 8C311 3.58172 307.418 0 303 0H8C3.58172 0 0 3.58172 0 8V69C0 73.4183 3.58173 77 8.00001 77H135.843C138.209 77 140.454 78.0477 141.974 79.8613L149.369 88.6841C152.566 92.4992 158.434 92.4992 161.631 88.6841L169.026 79.8613C170.546 78.0477 172.791 77 175.157 77H303C307.418 77 311 73.4183 311 69V8Z" fill="#333333"/>
<path d="M169.026 79.8613L168.259 79.219L169.026 79.8613ZM149.369 88.6841L148.602 89.3264L149.369 88.6841ZM161.631 88.6841L160.865 88.0417L161.631 88.6841ZM141.974 79.8613L142.741 79.219L141.974 79.8613ZM8 1H303V-1H8V1ZM1 69V8H-1V69H1ZM135.843 76H8.00001V78H135.843V76ZM150.135 88.0417L142.741 79.219L141.208 80.5037L148.602 89.3264L150.135 88.0417ZM168.259 79.219L160.865 88.0417L162.398 89.3264L169.792 80.5037L168.259 79.219ZM303 76H175.157V78H303V76ZM310 8V69H312V8H310ZM303 78C307.971 78 312 73.9706 312 69H310C310 72.866 306.866 76 303 76V78ZM169.792 80.5037C171.122 78.9167 173.086 78 175.157 78V76C172.495 76 169.969 77.1786 168.259 79.219L169.792 80.5037ZM148.602 89.3264C152.199 93.6184 158.801 93.6184 162.398 89.3264L160.865 88.0417C158.067 91.38 152.933 91.38 150.135 88.0417L148.602 89.3264ZM135.843 78C137.914 78 139.878 78.9167 141.208 80.5037L142.741 79.219C141.031 77.1786 138.505 76 135.843 76V78ZM-1 69C-1 73.9706 3.02944 78 8.00001 78V76C4.13401 76 1 72.866 1 69H-1ZM303 1C306.866 1 310 4.13401 310 8H312C312 3.02944 307.971 -1 303 -1V1ZM8 -1C3.02944 -1 -1 3.02944 -1 8H1C1 4.13401 4.13401 1 8 1V-1Z" fill="#FF8E8E" mask="url(#path-1-inside-1_875_1134)"/>
</svg>
