<svg width="58" height="58" viewBox="0 0 58 58" fill="none" xmlns="http://www.w3.org/2000/svg">
<g clip-path="url(#clip0_909_4152)">
<path fill-rule="evenodd" clip-rule="evenodd" d="M29.3867 57.6133C15.716 57.6133 8.88062 57.6133 4.63367 53.3663C0.386719 49.1194 0.386719 42.284 0.386719 28.6133C0.386719 14.9426 0.386719 8.10718 4.63367 3.86023C8.88062 -0.386719 15.716 -0.386719 29.3867 -0.386719C43.0574 -0.386719 49.8928 -0.386719 54.1398 3.86023C58.3867 8.10718 58.3867 14.9426 58.3867 28.6133C58.3867 42.284 58.3867 49.1194 54.1398 53.3663C49.8928 57.6133 43.0574 57.6133 29.3867 57.6133ZM20.5987 19.8253C21.4481 18.9759 22.8252 18.9759 23.6746 19.8253L29.3867 25.5374L35.0987 19.8254C35.9481 18.976 37.3252 18.976 38.1746 19.8254C39.024 20.6748 39.024 22.0519 38.1746 22.9013L32.4626 28.6133L38.1746 34.3253C39.0239 35.1747 39.0239 36.5518 38.1746 37.4012C37.3252 38.2506 35.948 38.2506 35.0986 37.4012L29.3867 31.6892L23.6747 37.4012C22.8253 38.2506 21.4482 38.2506 20.5988 37.4012C19.7494 36.5518 19.7494 35.1747 20.5988 34.3253L26.3108 28.6133L20.5987 22.9012C19.7493 22.0518 19.7493 20.6747 20.5987 19.8253Z" fill="white"/>
</g>
<defs>
<clipPath id="clip0_909_4152">
<rect width="58" height="58" fill="white"/>
</clipPath>
</defs>
</svg>
