<svg width="177" height="164" viewBox="0 0 177 164" fill="none" xmlns="http://www.w3.org/2000/svg">
<path d="M1.78962 1.78791L2.14317 2.14146L1.78962 1.78791C1.64813 1.92939 1.45624 2.00888 1.25615 2.00888C1.05606 2.00888 0.864163 1.92939 0.722679 1.78791C0.581194 1.64642 0.501709 1.45453 0.501709 1.25444C0.501709 1.05435 0.581194 0.862454 0.722679 0.72097C0.864163 0.579485 1.05606 0.5 1.25615 0.5C1.45624 0.5 1.64813 0.579485 1.78962 0.72097C1.9311 0.862454 2.01058 1.05435 2.01058 1.25444C2.01058 1.45453 1.9311 1.64642 1.78962 1.78791Z" stroke="white"/>
<path d="M17.8724 1.25444C17.8724 1.45453 17.7929 1.64642 17.6514 1.78791C17.5099 1.92939 17.3181 2.00888 17.118 2.00888C16.9179 2.00888 16.726 1.92939 16.5845 1.78791C16.443 1.64642 16.3635 1.45453 16.3635 1.25444C16.3635 1.05435 16.443 0.862455 16.5845 0.72097C16.726 0.579485 16.9179 0.5 17.118 0.5C17.3181 0.5 17.5099 0.579485 17.6514 0.72097C17.7929 0.862455 17.8724 1.05435 17.8724 1.25444Z" stroke="white"/>
<path d="M33.7357 1.26767C33.7383 1.36835 33.7208 1.46854 33.6841 1.56232L34.1497 1.74453L33.684 1.56232C33.6473 1.65611 33.5922 1.7416 33.522 1.81375C33.4517 1.8859 33.3677 1.94326 33.2749 1.98243C33.1821 2.0216 33.0825 2.0418 32.9817 2.04183C32.881 2.04187 32.7813 2.02174 32.6885 1.98263C32.5957 1.94352 32.5117 1.88622 32.4414 1.81411C32.371 1.74201 32.3159 1.65655 32.2791 1.56279C32.2423 1.46903 32.2247 1.36886 32.2273 1.26817C32.2323 1.07152 32.3139 0.884601 32.4548 0.747262C32.5956 0.609923 32.7845 0.533025 32.9812 0.532959C33.178 0.532893 33.3669 0.609666 33.5078 0.746911C33.6488 0.884156 33.7305 1.07102 33.7357 1.26767Z" stroke="white"/>
<path d="M49.5982 1.26767C49.6009 1.36835 49.5833 1.46854 49.5466 1.56232C49.5099 1.65611 49.4548 1.7416 49.3845 1.81375C49.3143 1.88591 49.2303 1.94326 49.1375 1.98243C49.0447 2.0216 48.945 2.0418 48.8443 2.04183C48.7436 2.04187 48.6439 2.02174 48.5511 1.98263C48.4583 1.94352 48.3742 1.88622 48.3039 1.81411C48.2336 1.74201 48.1784 1.65655 48.1417 1.56279C48.1049 1.46902 48.0873 1.36885 48.0898 1.26817C48.0949 1.07152 48.1765 0.884604 48.3173 0.747262C48.4582 0.609923 48.6471 0.533025 48.8438 0.532959C49.0405 0.532893 49.2295 0.609665 49.3704 0.746911C49.5113 0.884156 49.5931 1.07102 49.5982 1.26767Z" stroke="white"/>
<path d="M65.2401 0.72097L65.5936 0.367416L65.2401 0.72097C65.3815 0.862454 65.461 1.05435 65.461 1.25444C65.461 1.45453 65.3815 1.64642 65.2401 1.78791L65.5936 2.14146L65.2401 1.78791C65.0986 1.92939 64.9067 2.00888 64.7066 2.00888C64.5065 2.00888 64.3146 1.92939 64.1731 1.78791C64.0316 1.64642 63.9521 1.45453 63.9521 1.25444C63.9521 1.05435 64.0316 0.862454 64.1731 0.72097C64.3146 0.579485 64.5065 0.5 64.7066 0.5C64.9067 0.5 65.0986 0.579486 65.2401 0.72097Z" stroke="white"/>
<path d="M81.3236 1.25444C81.3236 1.45452 81.2441 1.64642 81.1026 1.78791C80.9611 1.92939 80.7692 2.00888 80.5691 2.00888C80.369 2.00888 80.1772 1.92939 80.0357 1.78791C79.8942 1.64642 79.8147 1.45453 79.8147 1.25444C79.8147 1.05435 79.8942 0.862454 80.0357 0.72097C80.1772 0.579485 80.369 0.5 80.5691 0.5C80.7692 0.5 80.9611 0.579484 81.1026 0.72097C81.2441 0.862458 81.3236 1.05435 81.3236 1.25444Z" stroke="white"/>
<path d="M97.1866 1.26767C97.1892 1.36835 97.1717 1.46854 97.135 1.56232C97.0983 1.65611 97.0432 1.7416 96.9729 1.81375C96.9026 1.8859 96.8186 1.94326 96.7259 1.98243C96.6331 2.0216 96.5334 2.0418 96.4327 2.04183C96.332 2.04187 96.2323 2.02174 96.1394 1.98263C96.0466 1.94352 95.9626 1.88622 95.8923 1.81411C95.822 1.74202 95.7668 1.65656 95.73 1.56279C95.6933 1.46902 95.6757 1.36884 95.6782 1.26817C95.6832 1.07152 95.7649 0.884604 95.9057 0.747262C96.0465 0.609923 96.2355 0.533025 96.4322 0.532959C96.6289 0.532893 96.8178 0.609665 96.9588 0.746911C97.0997 0.884156 97.1815 1.07102 97.1866 1.26767Z" stroke="white"/>
<path d="M112.818 0.757287L113.165 0.398007L112.818 0.757287C112.959 0.892808 113.042 1.0776 113.049 1.27279C113.053 1.37412 113.036 1.47516 113 1.56986L113.467 1.74833L113 1.56986C112.964 1.66456 112.909 1.75101 112.838 1.82404C112.768 1.89706 112.684 1.95515 112.59 1.99483C112.497 2.03451 112.397 2.05498 112.295 2.05502C112.194 2.05505 112.093 2.03465 112 1.99502C111.907 1.9554 111.822 1.89738 111.752 1.8244L111.392 2.17156L111.752 1.8244C111.682 1.75142 111.627 1.66501 111.59 1.57033C111.554 1.47565 111.537 1.37462 111.541 1.27329C111.548 1.07809 111.631 0.893249 111.771 0.757637C111.912 0.622023 112.099 0.546208 112.295 0.546143C112.49 0.546077 112.678 0.621766 112.818 0.757287Z" stroke="white"/>
<path d="M128.912 1.25443C128.912 1.35352 128.893 1.45162 128.855 1.54316C128.817 1.63471 128.761 1.71789 128.691 1.78797C128.621 1.85805 128.538 1.91365 128.446 1.9516C128.355 1.98954 128.257 2.00909 128.158 2.00912C128.059 2.00915 127.961 1.98967 127.869 1.95179C127.777 1.91391 127.694 1.85836 127.624 1.78833C127.554 1.7183 127.499 1.63515 127.461 1.54363C127.423 1.45209 127.403 1.35399 127.403 1.25493C127.403 1.05485 127.482 0.862929 127.624 0.721392C127.765 0.579861 127.957 0.500311 128.157 0.500244C128.357 0.500177 128.549 0.579599 128.691 0.721036L129.013 0.398558L128.691 0.721036C128.832 0.862467 128.912 1.05433 128.912 1.25443Z" stroke="white"/>
<path d="M144.774 1.25444C144.774 1.45452 144.694 1.64642 144.553 1.78791C144.411 1.92939 144.219 2.00888 144.019 2.00888C143.819 2.00888 143.627 1.92939 143.486 1.78791C143.344 1.64643 143.265 1.45453 143.265 1.25444C143.265 1.05434 143.344 0.862449 143.486 0.72097C143.627 0.579487 143.819 0.5 144.019 0.5C144.219 0.5 144.411 0.579484 144.553 0.72097C144.694 0.862458 144.774 1.05435 144.774 1.25444Z" stroke="white"/>
<path d="M159.34 1.8244L158.986 2.16585L159.34 1.8244C159.27 1.75144 159.215 1.66503 159.179 1.57033C159.143 1.47565 159.126 1.37462 159.129 1.27329C159.136 1.07809 159.219 0.893249 159.36 0.757637C159.5 0.622019 159.688 0.546208 159.883 0.546143C160.078 0.546077 160.266 0.621766 160.407 0.757287C160.547 0.892808 160.63 1.0776 160.637 1.27279C160.641 1.37412 160.624 1.47516 160.588 1.56986C160.552 1.66458 160.497 1.75103 160.427 1.82404L160.787 2.17096L160.427 1.82404C160.356 1.89705 160.272 1.95514 160.179 1.99483C160.085 2.03451 159.985 2.05498 159.884 2.05502C159.782 2.05505 159.682 2.03465 159.589 1.99502C159.495 1.9554 159.411 1.89737 159.34 1.8244Z" stroke="white"/>
<path d="M176.5 1.26767C176.502 1.36835 176.485 1.46854 176.448 1.56232C176.411 1.65612 176.356 1.74161 176.286 1.81375C176.216 1.8859 176.132 1.94326 176.039 1.98243C175.946 2.0216 175.846 2.0418 175.746 2.04183C175.645 2.04187 175.545 2.02174 175.452 1.98263C175.36 1.94352 175.276 1.88622 175.205 1.81411C175.135 1.742 175.08 1.65654 175.043 1.56279C175.006 1.46904 174.989 1.36887 174.991 1.26817C174.996 1.07152 175.078 0.884599 175.219 0.747262C175.36 0.609923 175.548 0.533025 175.745 0.532959C175.942 0.532893 176.131 0.609667 176.272 0.746911C176.413 0.884152 176.494 1.07101 176.5 1.26767Z" stroke="white"/>
<path d="M2.01055 17.3305C2.01055 17.5308 1.93097 17.7229 1.78933 17.8645C1.64769 18.0062 1.45559 18.0857 1.25527 18.0857C1.05496 18.0857 0.862856 18.0062 0.721215 17.8645C0.579574 17.7229 0.5 17.5308 0.5 17.3305C0.5 17.1302 0.579573 16.9381 0.721215 16.7964C0.862856 16.6548 1.05496 16.5752 1.25527 16.5752C1.45559 16.5752 1.64769 16.6548 1.78933 16.7964C1.93098 16.9381 2.01055 17.1302 2.01055 17.3305Z" stroke="white"/>
<path d="M17.8724 17.3306C17.8724 17.5307 17.7929 17.7226 17.6514 17.8641C17.5099 18.0056 17.3181 18.085 17.118 18.085C16.9179 18.085 16.726 18.0056 16.5845 17.8641L16.2309 18.2176L16.5845 17.8641C16.443 17.7226 16.3635 17.5307 16.3635 17.3306C16.3635 17.1305 16.443 16.9386 16.5845 16.7971C16.726 16.6557 16.9179 16.5762 17.118 16.5762C17.3181 16.5762 17.5099 16.6557 17.6514 16.7971C17.7929 16.9386 17.8724 17.1305 17.8724 17.3306Z" stroke="white"/>
<path d="M33.5142 16.7971L33.8678 16.4436L33.5142 16.7971C33.6557 16.9386 33.7352 17.1305 33.7352 17.3306C33.7352 17.5307 33.6557 17.7226 33.5142 17.8641L33.8678 18.2176L33.5142 17.8641C33.3727 18.0056 33.1808 18.085 32.9808 18.085C32.7807 18.085 32.5888 18.0056 32.4473 17.8641L32.0937 18.2176L32.4473 17.8641C32.3058 17.7226 32.2263 17.5307 32.2263 17.3306C32.2263 17.1305 32.3058 16.9386 32.4473 16.7971C32.5888 16.6557 32.7807 16.5762 32.9808 16.5762C33.1808 16.5762 33.3727 16.6557 33.5142 16.7971Z" stroke="white"/>
<path d="M49.3773 16.7971L49.7308 16.4436L49.3773 16.7971C49.5187 16.9386 49.5982 17.1305 49.5982 17.3306C49.5982 17.5307 49.5187 17.7226 49.3773 17.8641L49.7308 18.2176L49.3773 17.8641C49.2358 18.0056 49.0439 18.085 48.8438 18.085C48.6437 18.085 48.4518 18.0056 48.3103 17.8641L47.9568 18.2176L48.3103 17.8641C48.1688 17.7226 48.0894 17.5307 48.0894 17.3306C48.0894 17.1305 48.1688 16.9386 48.3103 16.7971C48.4518 16.6557 48.6437 16.5762 48.8438 16.5762C49.0439 16.5762 49.2358 16.6557 49.3773 16.7971Z" stroke="white"/>
<path d="M65.4609 17.3305C65.4609 17.5307 65.3814 17.7227 65.2398 17.8643C65.0982 18.0059 64.9062 18.0854 64.706 18.0854C64.5058 18.0854 64.3138 18.0059 64.1723 17.8643C64.0307 17.7227 63.9512 17.5307 63.9512 17.3305C63.9512 17.1303 64.0307 16.9383 64.1723 16.7968C64.3138 16.6552 64.5058 16.5757 64.706 16.5757C64.9062 16.5757 65.0982 16.6552 65.2398 16.7968C65.3814 16.9383 65.4609 17.1303 65.4609 17.3305Z" stroke="white"/>
<path d="M81.3226 17.3663C81.3185 17.4532 81.2994 17.5389 81.266 17.6195C81.228 17.7111 81.1724 17.7943 81.1023 17.8644C81.0322 17.9345 80.949 17.9901 80.8575 18.028C80.7659 18.0659 80.6677 18.0855 80.5686 18.0855C80.4695 18.0855 80.3713 18.0659 80.2797 18.028C80.1881 17.9901 80.1049 17.9345 80.0348 17.8644C79.9647 17.7943 79.9091 17.7111 79.8712 17.6195C79.8332 17.5279 79.8137 17.4297 79.8137 17.3306C79.8137 17.1305 79.8932 16.9386 80.0347 16.7971C80.1762 16.6557 80.3681 16.5762 80.5682 16.5762C80.7682 16.5762 80.9601 16.6557 81.1016 16.7971C81.2431 16.9386 81.3226 17.1305 81.3226 17.3306V17.3663Z" stroke="white"/>
<path d="M96.9654 16.7971L97.319 16.4436L96.9654 16.7971C97.1069 16.9386 97.1864 17.1305 97.1864 17.3306C97.1864 17.5307 97.1069 17.7226 96.9654 17.8641L97.319 18.2176L96.9654 17.8641C96.8239 18.0056 96.632 18.085 96.4319 18.085C96.2318 18.085 96.0399 18.0056 95.8985 17.8641L95.5449 18.2176L95.8985 17.8641C95.757 17.7226 95.6775 17.5307 95.6775 17.3306C95.6775 17.1305 95.757 16.9386 95.8985 16.7971C96.0399 16.6557 96.2318 16.5762 96.4319 16.5762C96.632 16.5762 96.8239 16.6557 96.9654 16.7971Z" stroke="white"/>
<path d="M111.761 17.8641L111.407 18.2176L111.761 17.8641C111.619 17.7226 111.54 17.5307 111.54 17.3306C111.54 17.1305 111.619 16.9386 111.761 16.7971C111.902 16.6557 112.094 16.5762 112.294 16.5762C112.494 16.5762 112.686 16.6557 112.827 16.7971C112.969 16.9386 113.048 17.1305 113.048 17.3306C113.048 17.5307 112.969 17.7226 112.827 17.8641C112.686 18.0056 112.494 18.085 112.294 18.085C112.094 18.085 111.902 18.0056 111.761 17.8641Z" stroke="white"/>
<path d="M128.912 17.3306C128.912 17.5307 128.832 17.7226 128.691 17.8641L129.045 18.2176L128.691 17.8641C128.55 18.0056 128.358 18.085 128.158 18.085C127.957 18.085 127.766 18.0056 127.624 17.8641L127.27 18.2176L127.624 17.8641C127.483 17.7226 127.403 17.5307 127.403 17.3306C127.403 17.1305 127.483 16.9386 127.624 16.7971C127.766 16.6557 127.957 16.5762 128.158 16.5762C128.358 16.5762 128.55 16.6557 128.691 16.7971C128.832 16.9386 128.912 17.1305 128.912 17.3306Z" stroke="white"/>
<path d="M143.486 17.8641L143.132 18.2176L143.486 17.8641C143.344 17.7226 143.265 17.5307 143.265 17.3306C143.265 17.1305 143.344 16.9386 143.486 16.7971C143.627 16.6557 143.819 16.5762 144.019 16.5762C144.219 16.5762 144.411 16.6557 144.553 16.7971C144.694 16.9386 144.774 17.1305 144.774 17.3306C144.774 17.5307 144.694 17.7226 144.553 17.8641C144.411 18.0056 144.219 18.085 144.019 18.085C143.819 18.085 143.627 18.0056 143.486 17.8641Z" stroke="white"/>
<path d="M160.637 17.3306C160.637 17.5307 160.557 17.7226 160.416 17.8641L160.769 18.2176L160.416 17.8641C160.274 18.0056 160.082 18.085 159.882 18.085C159.682 18.085 159.49 18.0056 159.349 17.8641L158.995 18.2176L159.349 17.8641C159.207 17.7226 159.128 17.5307 159.128 17.3306C159.128 17.1305 159.207 16.9386 159.349 16.7971C159.49 16.6557 159.682 16.5762 159.882 16.5762C160.082 16.5762 160.274 16.6557 160.416 16.7971C160.557 16.9386 160.637 17.1305 160.637 17.3306Z" stroke="white"/>
<path d="M176.5 17.3306C176.5 17.5307 176.42 17.7226 176.279 17.8641L176.632 18.2176L176.279 17.8641C176.137 18.0056 175.945 18.085 175.745 18.085C175.545 18.085 175.353 18.0056 175.212 17.8641L174.858 18.2176L175.212 17.8641C175.07 17.7226 174.991 17.5307 174.991 17.3306C174.991 17.1305 175.07 16.9386 175.212 16.7971C175.353 16.6557 175.545 16.5762 175.745 16.5762C175.945 16.5762 176.137 16.6557 176.279 16.7971C176.42 16.9386 176.5 17.1305 176.5 17.3306Z" stroke="white"/>
<path d="M1.78962 33.94L2.14317 34.2936L1.78962 33.94C1.64813 34.0815 1.45624 34.161 1.25615 34.161C1.05606 34.161 0.864163 34.0815 0.722679 33.94L0.369125 34.2936L0.722679 33.94C0.581195 33.7985 0.501709 33.6066 0.501709 33.4065C0.501709 33.2064 0.581194 33.0146 0.722679 32.8731C0.864163 32.7316 1.05606 32.6521 1.25615 32.6521C1.45624 32.6521 1.64813 32.7316 1.78962 32.8731C1.9311 33.0146 2.01058 33.2064 2.01058 33.4065C2.01058 33.6066 1.9311 33.7985 1.78962 33.94Z" stroke="white"/>
<path d="M16.5845 33.94L16.2309 34.2936L16.5845 33.94C16.443 33.7985 16.3635 33.6066 16.3635 33.4065C16.3635 33.2064 16.443 33.0146 16.5845 32.8731C16.726 32.7316 16.9179 32.6521 17.118 32.6521C17.3181 32.6521 17.5099 32.7316 17.6514 32.8731C17.7929 33.0146 17.8724 33.2064 17.8724 33.4065C17.8724 33.6066 17.7929 33.7985 17.6514 33.94C17.5099 34.0815 17.3181 34.161 17.118 34.161C16.9179 34.161 16.726 34.0815 16.5845 33.94Z" stroke="white"/>
<path d="M33.7357 33.4195C33.7383 33.5202 33.7208 33.6204 33.6841 33.7142L34.1497 33.8964L33.684 33.7142C33.6473 33.808 33.5922 33.8935 33.522 33.9656C33.4517 34.0378 33.3677 34.0951 33.2749 34.1343C33.1821 34.1735 33.0825 34.1937 32.9817 34.1937C32.881 34.1937 32.7813 34.1736 32.6885 34.1345C32.5957 34.0954 32.5117 34.0381 32.4414 33.966C32.371 33.8939 32.3159 33.8084 32.2791 33.7146C32.2423 33.6209 32.2247 33.5207 32.2273 33.42C32.2323 33.2234 32.3139 33.0365 32.4548 32.8991C32.5956 32.7618 32.7845 32.6849 32.9812 32.6848C33.178 32.6847 33.3669 32.7615 33.5078 32.8988C33.6488 33.036 33.7305 33.2229 33.7357 33.4195Z" stroke="white"/>
<path d="M49.5982 33.4195C49.6009 33.5202 49.5833 33.6204 49.5466 33.7142C49.5099 33.808 49.4548 33.8935 49.3845 33.9656C49.3143 34.0378 49.2303 34.0951 49.1375 34.1343C49.0447 34.1735 48.945 34.1937 48.8443 34.1937C48.7436 34.1937 48.6439 34.1736 48.5511 34.1345C48.4583 34.0954 48.3742 34.0381 48.3039 33.966C48.2336 33.8939 48.1784 33.8084 48.1417 33.7146C48.1049 33.6209 48.0873 33.5207 48.0898 33.42C48.0949 33.2234 48.1765 33.0365 48.3173 32.8991C48.4582 32.7618 48.6471 32.6849 48.8438 32.6848C49.0405 32.6847 49.2295 32.7615 49.3704 32.8988C49.5113 33.036 49.5931 33.2229 49.5982 33.4195Z" stroke="white"/>
<path d="M65.2401 32.8731L65.5936 32.5195L65.2401 32.8731C65.3815 33.0146 65.461 33.2064 65.461 33.4065C65.461 33.6066 65.3815 33.7985 65.2401 33.94L65.5936 34.2936L65.2401 33.94C65.0986 34.0815 64.9067 34.161 64.7066 34.161C64.5065 34.161 64.3146 34.0815 64.1731 33.94L63.8196 34.2936L64.1731 33.94C64.0316 33.7985 63.9521 33.6066 63.9521 33.4065C63.9521 33.2064 64.0316 33.0146 64.1731 32.8731C64.3146 32.7316 64.5065 32.6521 64.7066 32.6521C64.9067 32.6521 65.0986 32.7316 65.2401 32.8731Z" stroke="white"/>
<path d="M80.0357 33.94L79.6821 34.2936L80.0357 33.94C79.8942 33.7985 79.8147 33.6066 79.8147 33.4065C79.8147 33.2064 79.8942 33.0146 80.0357 32.8731C80.1771 32.7316 80.369 32.6521 80.5691 32.6521C80.7692 32.6521 80.9611 32.7316 81.1026 32.8731C81.2441 33.0146 81.3236 33.2065 81.3236 33.4065C81.3236 33.6066 81.2441 33.7985 81.1026 33.94C80.9611 34.0815 80.7692 34.161 80.5691 34.161C80.369 34.161 80.1771 34.0815 80.0357 33.94Z" stroke="white"/>
<path d="M97.1866 33.4195C97.1892 33.5202 97.1717 33.6204 97.135 33.7142C97.0983 33.808 97.0432 33.8935 96.9729 33.9656C96.9026 34.0378 96.8186 34.0951 96.7259 34.1343C96.6331 34.1735 96.5334 34.1937 96.4327 34.1937C96.332 34.1937 96.2323 34.1736 96.1394 34.1345C96.0466 34.0954 95.9626 34.0381 95.8923 33.966C95.822 33.8939 95.7668 33.8084 95.73 33.7146C95.6933 33.6209 95.6757 33.5207 95.6782 33.42C95.6832 33.2234 95.7649 33.0365 95.9057 32.8991C96.0465 32.7618 96.2355 32.6849 96.4322 32.6848C96.6289 32.6847 96.8178 32.7615 96.9588 32.8988C97.0997 33.036 97.1815 33.2229 97.1866 33.4195Z" stroke="white"/>
<path d="M113.049 33.4249C113.053 33.5262 113.036 33.6273 113 33.722L113.467 33.9004L113 33.722C112.964 33.8167 112.909 33.9031 112.838 33.9761C112.768 34.0492 112.684 34.1072 112.59 34.1469C112.497 34.1866 112.397 34.2071 112.295 34.2071C112.194 34.2072 112.093 34.1867 112 34.1471C111.907 34.1075 111.822 34.0495 111.752 33.9765C111.682 33.9035 111.627 33.8171 111.59 33.7224C111.554 33.6277 111.537 33.5267 111.541 33.4254C111.548 33.2302 111.631 33.0454 111.771 32.9097C111.912 32.7741 112.099 32.6983 112.295 32.6982C112.49 32.6982 112.678 32.7739 112.818 32.9094L113.165 32.5501L112.818 32.9094C112.959 33.0449 113.042 33.2297 113.049 33.4249Z" stroke="white"/>
<path d="M128.446 34.1037L128.446 34.1037C128.355 34.1416 128.257 34.1612 128.158 34.1612C128.059 34.1613 127.961 34.1418 127.869 34.1039C127.777 34.066 127.694 34.0105 127.624 33.9404C127.554 33.8704 127.499 33.7872 127.461 33.6957C127.423 33.6042 127.403 33.5061 127.403 33.407C127.403 33.207 127.482 33.015 127.624 32.8735C127.765 32.732 127.957 32.6524 128.157 32.6523C128.357 32.6523 128.549 32.7317 128.691 32.8731L129.044 32.5195L128.691 32.8731C128.832 33.0146 128.912 33.2064 128.912 33.4065C128.912 33.5056 128.893 33.6037 128.855 33.6953C128.817 33.7868 128.761 33.87 128.691 33.9401C128.621 34.0102 128.538 34.0658 128.446 34.1037Z" stroke="white"/>
<path d="M143.486 33.94L143.132 34.2936L143.486 33.94C143.344 33.7985 143.265 33.6066 143.265 33.4065C143.265 33.2064 143.344 33.0145 143.486 32.8731C143.627 32.7316 143.819 32.6521 144.019 32.6521C144.219 32.6521 144.411 32.7316 144.553 32.8731C144.694 33.0146 144.774 33.2065 144.774 33.4065C144.774 33.6066 144.694 33.7985 144.553 33.94C144.411 34.0815 144.219 34.161 144.019 34.161C143.819 34.161 143.627 34.0815 143.486 33.94Z" stroke="white"/>
<path d="M160.427 33.9761L160.787 34.3231L160.427 33.9761C160.356 34.0492 160.272 34.1072 160.179 34.1469C160.085 34.1866 159.985 34.2071 159.884 34.2071C159.782 34.2072 159.682 34.1867 159.589 34.1471C159.495 34.1075 159.411 34.0495 159.34 33.9765C159.27 33.9035 159.215 33.8171 159.179 33.7224C159.143 33.6277 159.126 33.5267 159.129 33.4254C159.136 33.2302 159.219 33.0454 159.36 32.9097C159.5 32.7741 159.688 32.6983 159.883 32.6982C160.078 32.6982 160.266 32.7739 160.407 32.9094C160.547 33.0449 160.63 33.2297 160.637 33.4249C160.641 33.5262 160.624 33.6273 160.588 33.722C160.552 33.8167 160.497 33.9031 160.427 33.9761Z" stroke="white"/>
<path d="M176.5 33.4195C176.502 33.5202 176.485 33.6204 176.448 33.7142C176.411 33.808 176.356 33.8935 176.286 33.9656C176.216 34.0378 176.132 34.0951 176.039 34.1343C175.946 34.1735 175.846 34.1937 175.746 34.1937C175.645 34.1937 175.545 34.1736 175.452 34.1345C175.36 34.0954 175.276 34.0381 175.205 33.966C175.135 33.8939 175.08 33.8084 175.043 33.7146C175.006 33.6209 174.989 33.5207 174.991 33.42C174.996 33.2234 175.078 33.0365 175.219 32.8991C175.36 32.7618 175.548 32.6849 175.745 32.6848C175.942 32.6847 176.131 32.7615 176.272 32.8988C176.413 33.036 176.494 33.2229 176.5 33.4195Z" stroke="white"/>
<path d="M0.721037 50.0169L0.413388 50.3243L0.721037 50.0169C0.579442 49.8752 0.499933 49.683 0.5 49.4827V49.4826C0.5 49.2823 0.579573 49.0902 0.721215 48.9485C0.862856 48.8069 1.05496 48.7273 1.25527 48.7273C1.45559 48.7273 1.64769 48.8069 1.78933 48.9485C1.93098 49.0902 2.01055 49.2823 2.01055 49.4826V49.4832C2.01055 49.4833 2.01055 49.4833 2.01055 49.4834C2.01044 49.6837 1.93081 49.8757 1.78916 50.0172C1.64747 50.1588 1.45534 50.2383 1.25502 50.2383C1.05471 50.2382 0.862632 50.1586 0.721037 50.0169Z" stroke="white"/>
<path d="M16.3635 49.4829V49.4827C16.3635 49.2826 16.443 49.0907 16.5845 48.9492C16.726 48.8078 16.9179 48.7283 17.118 48.7283C17.3181 48.7283 17.5099 48.8078 17.6514 48.9492C17.7929 49.0907 17.8724 49.2826 17.8724 49.4827V49.4834C17.8724 49.4834 17.8724 49.4835 17.8724 49.4835C17.8723 49.5826 17.8528 49.6806 17.8149 49.7721C17.7769 49.8636 17.7213 49.9467 17.6513 50.0168C17.5812 50.0868 17.498 50.1423 17.4064 50.1802C17.3149 50.2181 17.2168 50.2376 17.1177 50.2376C17.0186 50.2375 16.9205 50.218 16.829 50.18C16.7375 50.1421 16.6543 50.0865 16.5843 50.0164C16.5143 49.9463 16.4587 49.8632 16.4209 49.7716C16.383 49.6801 16.3635 49.582 16.3635 49.4829Z" stroke="white"/>
<path d="M33.5142 48.9497L33.8678 48.5962L33.5142 48.9497C33.6557 49.0912 33.7352 49.2831 33.7352 49.4832C33.7352 49.6833 33.6557 49.8752 33.5142 50.0167L33.8678 50.3702L33.5142 50.0167C33.3727 50.1582 33.1808 50.2376 32.9808 50.2376C32.7807 50.2376 32.5888 50.1582 32.4473 50.0167L32.0937 50.3702L32.4473 50.0167C32.3058 49.8752 32.2263 49.6833 32.2263 49.4832C32.2263 49.2831 32.3058 49.0912 32.4473 48.9497C32.5888 48.8082 32.7807 48.7288 32.9808 48.7288C33.1808 48.7288 33.3727 48.8082 33.5142 48.9497Z" stroke="white"/>
<path d="M49.3773 48.9497L49.7308 48.5962L49.3773 48.9497C49.5187 49.0912 49.5982 49.2831 49.5982 49.4832C49.5982 49.6833 49.5187 49.8752 49.3773 50.0167L49.7308 50.3702L49.3773 50.0167C49.2358 50.1582 49.0439 50.2376 48.8438 50.2376C48.6437 50.2376 48.4518 50.1582 48.3103 50.0167L47.9568 50.3702L48.3103 50.0167C48.1688 49.8752 48.0894 49.6833 48.0894 49.4832C48.0894 49.2831 48.1688 49.0912 48.3103 48.9497C48.4518 48.8082 48.6437 48.7288 48.8438 48.7288C49.0439 48.7288 49.2358 48.8082 49.3773 48.9497Z" stroke="white"/>
<path d="M64.1721 50.0164L63.8184 50.3698L64.1721 50.0164C64.102 49.9463 64.0464 49.8631 64.0085 49.7715C63.9706 49.6799 63.9511 49.5817 63.9512 49.4826V49.4824C63.9512 49.2822 64.0307 49.0902 64.1723 48.9486C64.3138 48.8071 64.5058 48.7275 64.706 48.7275C64.9062 48.7275 65.0982 48.8071 65.2398 48.9486C65.3814 49.0902 65.4609 49.2822 65.4609 49.4824V49.4831C65.4609 49.4831 65.4609 49.4832 65.4609 49.4832C65.4608 49.5823 65.4413 49.6804 65.4033 49.7719C65.3654 49.8635 65.3097 49.9467 65.2396 50.0168C65.1695 50.0868 65.0863 50.1424 64.9947 50.1803C64.9031 50.2182 64.8049 50.2377 64.7058 50.2377C64.6066 50.2376 64.5085 50.2181 64.4169 50.1801C64.3254 50.1421 64.2422 50.0865 64.1721 50.0164Z" stroke="white"/>
<path d="M79.8137 49.4829V49.4827C79.8137 49.2826 79.8932 49.0907 80.0347 48.9492C80.1762 48.8078 80.3681 48.7283 80.5682 48.7283C80.7682 48.7283 80.9601 48.8078 81.1016 48.9492C81.2431 49.0907 81.3226 49.2826 81.3226 49.4827V49.5188C81.3137 49.7061 81.2354 49.8839 81.1022 50.0171C80.9606 50.1586 80.7685 50.238 80.5683 50.238C80.3681 50.2379 80.1762 50.1583 80.0346 50.0167L79.681 50.3701L80.0346 50.0167C79.8931 49.8751 79.8137 49.6831 79.8137 49.4829Z" stroke="white"/>
<path d="M96.9654 48.9497L97.319 48.5962L96.9654 48.9497C97.1069 49.0912 97.1864 49.2831 97.1864 49.4832C97.1864 49.6833 97.1069 49.8752 96.9654 50.0167L97.319 50.3702L96.9654 50.0167C96.8239 50.1582 96.632 50.2376 96.4319 50.2376C96.2318 50.2376 96.0399 50.1582 95.8985 50.0167L95.5449 50.3702L95.8985 50.0167C95.757 49.8752 95.6775 49.6833 95.6775 49.4832C95.6775 49.2831 95.757 49.0912 95.8985 48.9497C96.0399 48.8082 96.2318 48.7288 96.4319 48.7288C96.632 48.7288 96.8239 48.8082 96.9654 48.9497Z" stroke="white"/>
<path d="M111.761 50.0167L111.407 50.3702L111.761 50.0167C111.619 49.8752 111.54 49.6833 111.54 49.4832C111.54 49.2831 111.619 49.0912 111.761 48.9497C111.902 48.8082 112.094 48.7288 112.294 48.7288C112.494 48.7288 112.686 48.8082 112.827 48.9497C112.969 49.0912 113.048 49.2831 113.048 49.4832C113.048 49.6833 112.969 49.8752 112.827 50.0167C112.686 50.1582 112.494 50.2376 112.294 50.2376C112.094 50.2376 111.902 50.1582 111.761 50.0167Z" stroke="white"/>
<path d="M128.912 49.4832C128.912 49.6833 128.832 49.8752 128.691 50.0167L129.045 50.3702L128.691 50.0167C128.55 50.1581 128.358 50.2376 128.158 50.2376C127.957 50.2376 127.766 50.1582 127.624 50.0167L127.27 50.3702L127.624 50.0167C127.483 49.8752 127.403 49.6833 127.403 49.4832C127.403 49.2831 127.483 49.0912 127.624 48.9497C127.766 48.8082 127.957 48.7288 128.158 48.7288C128.358 48.7288 128.55 48.8082 128.691 48.9497C128.832 49.0912 128.912 49.2831 128.912 49.4832Z" stroke="white"/>
<path d="M143.265 49.4829V49.4827C143.265 49.2826 143.344 49.0907 143.486 48.9492C143.627 48.8078 143.819 48.7283 144.019 48.7283C144.219 48.7283 144.411 48.8078 144.553 48.9492C144.694 49.0907 144.774 49.2826 144.774 49.4827V49.4834C144.774 49.4834 144.774 49.4835 144.774 49.4835C144.774 49.6836 144.694 49.8754 144.553 50.0168C144.411 50.1582 144.219 50.2376 144.019 50.2376C143.819 50.2375 143.627 50.1579 143.486 50.0164C143.344 49.8749 143.265 49.683 143.265 49.4829Z" stroke="white"/>
<path d="M160.637 49.4832C160.637 49.6833 160.557 49.8752 160.416 50.0167L160.769 50.3702L160.416 50.0167C160.274 50.1581 160.082 50.2376 159.882 50.2376C159.682 50.2376 159.49 50.1582 159.349 50.0167L158.995 50.3702L159.349 50.0167C159.207 49.8752 159.128 49.6833 159.128 49.4832C159.128 49.2831 159.207 49.0912 159.349 48.9497C159.49 48.8082 159.682 48.7288 159.882 48.7288C160.082 48.7288 160.274 48.8082 160.416 48.9497C160.557 49.0912 160.637 49.2831 160.637 49.4832Z" stroke="white"/>
<path d="M176.5 49.4832C176.5 49.6833 176.42 49.8752 176.279 50.0167L176.632 50.3702L176.279 50.0167C176.137 50.1581 175.945 50.2376 175.745 50.2376C175.545 50.2376 175.353 50.1582 175.212 50.0167L174.858 50.3702L175.212 50.0167C175.07 49.8752 174.991 49.6833 174.991 49.4832C174.991 49.2831 175.07 49.0912 175.212 48.9497C175.353 48.8082 175.545 48.7288 175.745 48.7288C175.945 48.7288 176.137 48.8082 176.279 48.9497C176.42 49.0912 176.5 49.2831 176.5 49.4832Z" stroke="white"/>
<path d="M2.01055 65.5587C2.01055 65.7591 1.93097 65.9512 1.78933 66.0928C1.64769 66.2344 1.45559 66.314 1.25527 66.314C1.05496 66.314 0.862854 66.2344 0.721215 66.0928C0.579574 65.9512 0.5 65.7591 0.5 65.5587C0.5 65.3584 0.579572 65.1663 0.721215 65.0247C0.862858 64.883 1.05497 64.8035 1.25527 64.8035C1.45558 64.8035 1.64769 64.883 1.78933 65.0247C1.93098 65.1663 2.01055 65.3584 2.01055 65.5587Z" stroke="white"/>
<path d="M16.5845 66.0921L16.2309 66.4457L16.5845 66.0921C16.443 65.9506 16.3635 65.7587 16.3635 65.5586C16.3635 65.3585 16.443 65.1667 16.5845 65.0252C16.726 64.8837 16.9179 64.8042 17.118 64.8042C17.3181 64.8042 17.5099 64.8837 17.6514 65.0252C17.7929 65.1667 17.8724 65.3585 17.8724 65.5586C17.8724 65.7587 17.7929 65.9506 17.6514 66.0921C17.5099 66.2336 17.3181 66.3131 17.118 66.3131C16.9179 66.3131 16.726 66.2336 16.5845 66.0921Z" stroke="white"/>
<path d="M33.5142 65.0252L33.8678 64.6716L33.5142 65.0252C33.6557 65.1667 33.7352 65.3585 33.7352 65.5586C33.7352 65.7587 33.6557 65.9506 33.5142 66.0921L33.8678 66.4457L33.5142 66.0921C33.3727 66.2336 33.1808 66.3131 32.9808 66.3131C32.7807 66.3131 32.5888 66.2336 32.4473 66.0921L32.0937 66.4457L32.4473 66.0921C32.3058 65.9506 32.2263 65.7587 32.2263 65.5586C32.2263 65.3585 32.3058 65.1667 32.4473 65.0252C32.5888 64.8837 32.7807 64.8042 32.9808 64.8042C33.1808 64.8042 33.3727 64.8837 33.5142 65.0252Z" stroke="white"/>
<path d="M49.3773 65.0252L49.7308 64.6716L49.3773 65.0252C49.5187 65.1667 49.5982 65.3585 49.5982 65.5586C49.5982 65.7587 49.5187 65.9506 49.3773 66.0921L49.7308 66.4457L49.3773 66.0921C49.2358 66.2336 49.0439 66.3131 48.8438 66.3131C48.6437 66.3131 48.4518 66.2336 48.3103 66.0921L47.9568 66.4457L48.3103 66.0921C48.1688 65.9506 48.0894 65.7587 48.0894 65.5586C48.0894 65.3585 48.1688 65.1667 48.3103 65.0252C48.4518 64.8837 48.6437 64.8042 48.8438 64.8042C49.0439 64.8042 49.2358 64.8837 49.3773 65.0252Z" stroke="white"/>
<path d="M65.4609 65.5586C65.4609 65.7588 65.3814 65.9508 65.2398 66.0923C65.0982 66.2339 64.9062 66.3134 64.706 66.3134C64.5058 66.3134 64.3138 66.2339 64.1723 66.0923C64.0307 65.9508 63.9512 65.7588 63.9512 65.5586C63.9512 65.3584 64.0307 65.1664 64.1723 65.0248C64.3138 64.8832 64.5058 64.8037 64.706 64.8037C64.9062 64.8037 65.0982 64.8832 65.2398 65.0248C65.3814 65.1664 65.4609 65.3584 65.4609 65.5586Z" stroke="white"/>
<path d="M81.3226 65.5943C81.3185 65.6812 81.2994 65.7669 81.266 65.8475C81.228 65.9391 81.1724 66.0223 81.1023 66.0924C81.0322 66.1625 80.949 66.2181 80.8575 66.256C80.7659 66.294 80.6677 66.3135 80.5686 66.3135C80.4695 66.3135 80.3713 66.294 80.2797 66.256C80.1881 66.2181 80.1049 66.1625 80.0348 66.0924C79.9647 66.0223 79.9091 65.9391 79.8712 65.8475C79.8332 65.7559 79.8137 65.6578 79.8137 65.5586C79.8137 65.3586 79.8932 65.1667 80.0347 65.0252C80.1762 64.8837 80.3681 64.8042 80.5682 64.8042C80.7682 64.8042 80.9601 64.8837 81.1016 65.0252C81.2431 65.1667 81.3226 65.3585 81.3226 65.5586V65.5943Z" stroke="white"/>
<path d="M96.9654 65.0252L97.319 64.6716L96.9654 65.0252C97.1069 65.1667 97.1864 65.3585 97.1864 65.5586C97.1864 65.7587 97.1069 65.9506 96.9654 66.0921L97.319 66.4457L96.9654 66.0921C96.8239 66.2336 96.632 66.3131 96.4319 66.3131C96.2318 66.3131 96.0399 66.2336 95.8985 66.0921L95.5449 66.4457L95.8985 66.0921C95.757 65.9506 95.6775 65.7587 95.6775 65.5586C95.6775 65.3585 95.757 65.1667 95.8985 65.0252C96.0399 64.8837 96.2318 64.8042 96.4319 64.8042C96.632 64.8042 96.8239 64.8837 96.9654 65.0252Z" stroke="white"/>
<path d="M111.761 66.0921L111.407 66.4457L111.761 66.0921C111.619 65.9506 111.54 65.7587 111.54 65.5586C111.54 65.3586 111.619 65.1667 111.761 65.0252C111.902 64.8837 112.094 64.8042 112.294 64.8042C112.494 64.8042 112.686 64.8837 112.827 65.0252C112.969 65.1667 113.048 65.3586 113.048 65.5586C113.048 65.7587 112.969 65.9506 112.827 66.0921C112.686 66.2336 112.494 66.3131 112.294 66.3131C112.094 66.3131 111.902 66.2336 111.761 66.0921Z" stroke="white"/>
<path d="M128.912 65.5586C128.912 65.7587 128.832 65.9506 128.691 66.0921L129.045 66.4457L128.691 66.0921C128.55 66.2336 128.358 66.3131 128.158 66.3131C127.957 66.3131 127.766 66.2336 127.624 66.0921L127.27 66.4457L127.624 66.0921C127.483 65.9506 127.403 65.7587 127.403 65.5586C127.403 65.3586 127.483 65.1667 127.624 65.0252C127.766 64.8837 127.957 64.8042 128.158 64.8042C128.358 64.8042 128.55 64.8837 128.691 65.0252C128.832 65.1666 128.912 65.3585 128.912 65.5586Z" stroke="white"/>
<path d="M143.486 66.0921L143.132 66.4457L143.486 66.0921C143.344 65.9506 143.265 65.7587 143.265 65.5586C143.265 65.3585 143.344 65.1666 143.486 65.0252C143.627 64.8837 143.819 64.8042 144.019 64.8042C144.219 64.8042 144.411 64.8837 144.553 65.0252C144.694 65.1667 144.774 65.3586 144.774 65.5586C144.774 65.7587 144.694 65.9506 144.553 66.0921C144.411 66.2336 144.219 66.3131 144.019 66.3131C143.819 66.3131 143.627 66.2336 143.486 66.0921Z" stroke="white"/>
<path d="M160.637 65.5586C160.637 65.7587 160.557 65.9506 160.416 66.0921L160.769 66.4457L160.416 66.0921C160.274 66.2336 160.082 66.3131 159.882 66.3131C159.682 66.3131 159.49 66.2336 159.349 66.0921L158.995 66.4457L159.349 66.0921C159.207 65.9506 159.128 65.7587 159.128 65.5586C159.128 65.3586 159.207 65.1667 159.349 65.0252C159.49 64.8837 159.682 64.8042 159.882 64.8042C160.082 64.8042 160.274 64.8837 160.416 65.0252C160.557 65.1666 160.637 65.3585 160.637 65.5586Z" stroke="white"/>
<path d="M176.5 65.5586C176.5 65.7587 176.42 65.9506 176.279 66.0921L176.632 66.4457L176.279 66.0921C176.137 66.2336 175.945 66.3131 175.745 66.3131C175.545 66.3131 175.353 66.2336 175.212 66.0921L174.858 66.4457L175.212 66.0921C175.07 65.9506 174.991 65.7587 174.991 65.5586C174.991 65.3586 175.07 65.1667 175.212 65.0252C175.353 64.8837 175.545 64.8042 175.745 64.8042C175.945 64.8042 176.137 64.8837 176.279 65.0252C176.42 65.1666 176.5 65.3585 176.5 65.5586Z" stroke="white"/>
<path d="M0.721037 82.169L0.413388 82.4765L0.721037 82.169C0.579443 82.0273 0.499933 81.8352 0.5 81.6349C0.500067 81.4346 0.579703 81.2425 0.721393 81.1009C0.86308 80.9593 1.05521 80.8798 1.25553 80.8799C1.45584 80.8799 1.64792 80.9596 1.78951 81.1013C1.93111 81.243 2.01062 81.4351 2.01055 81.6354C2.01048 81.8357 1.93085 82.0278 1.78916 82.1694C1.64746 82.311 1.45533 82.3905 1.25502 82.3904C1.05471 82.3904 0.862632 82.3107 0.721037 82.169Z" stroke="white"/>
<path d="M17.8724 81.6353C17.8724 81.7344 17.8528 81.8325 17.8149 81.924L18.2609 82.1089L17.8149 81.924C17.7769 82.0155 17.7213 82.0987 17.6513 82.1687L18.0047 82.5224L17.6513 82.1687C17.5812 82.2387 17.498 82.2943 17.4064 82.3322C17.3149 82.37 17.2168 82.3895 17.1177 82.3895C17.0186 82.3895 16.9205 82.3699 16.829 82.332L16.6375 82.7938L16.829 82.332C16.7375 82.294 16.6544 82.2384 16.5843 82.1683C16.5143 82.0983 16.4587 82.0151 16.4209 81.9235C16.383 81.832 16.3635 81.7339 16.3635 81.6348C16.3636 81.4347 16.4431 81.2428 16.5847 81.1014C16.7262 80.96 16.9181 80.8805 17.1182 80.8806C17.3183 80.8807 17.5102 80.9602 17.6516 81.1018C17.793 81.2433 17.8725 81.4352 17.8724 81.6353Z" stroke="white"/>
<path d="M33.5142 81.1018L33.8678 80.7483L33.5142 81.1018C33.6557 81.2433 33.7352 81.4352 33.7352 81.6353C33.7352 81.8354 33.6557 82.0273 33.5142 82.1688L33.8678 82.5223L33.5142 82.1688C33.3727 82.3103 33.1808 82.3897 32.9808 82.3897C32.7807 82.3897 32.5888 82.3103 32.4473 82.1688L32.0937 82.5223L32.4473 82.1688C32.3058 82.0273 32.2263 81.8354 32.2263 81.6353C32.2263 81.4352 32.3058 81.2433 32.4473 81.1018C32.5888 80.9603 32.7807 80.8809 32.9808 80.8809C33.1808 80.8809 33.3727 80.9603 33.5142 81.1018Z" stroke="white"/>
<path d="M49.3773 81.1018L49.7308 80.7483L49.3773 81.1018C49.5187 81.2433 49.5982 81.4352 49.5982 81.6353C49.5982 81.8354 49.5187 82.0273 49.3773 82.1688L49.7308 82.5223L49.3773 82.1688C49.2358 82.3103 49.0439 82.3897 48.8438 82.3897C48.6437 82.3897 48.4518 82.3103 48.3103 82.1688L47.9568 82.5223L48.3103 82.1688C48.1688 82.0273 48.0894 81.8354 48.0894 81.6353C48.0894 81.4352 48.1688 81.2433 48.3103 81.1018C48.4518 80.9603 48.6437 80.8809 48.8438 80.8809C49.0439 80.8809 49.2358 80.9603 49.3773 81.1018Z" stroke="white"/>
<path d="M65.2396 82.1687L65.593 82.5224L65.2396 82.1687C65.1695 82.2387 65.0863 82.2943 64.9947 82.3322C64.9031 82.3701 64.8049 82.3896 64.7058 82.3896C64.6066 82.3896 64.5085 82.37 64.4169 82.332C64.3254 82.2941 64.2422 82.2384 64.1721 82.1683L63.8417 82.4985L64.1721 82.1683C64.102 82.0982 64.0464 82.015 64.0085 81.9234C63.9706 81.8318 63.9511 81.7336 63.9512 81.6345C63.9512 81.4343 64.0308 81.2423 64.1724 81.1008C64.314 80.9593 64.5061 80.8798 64.7063 80.8799C64.9065 80.8799 65.0985 80.9595 65.24 81.1012C65.3815 81.2428 65.461 81.4348 65.4609 81.635C65.4609 81.7341 65.4413 81.8323 65.4033 81.9238C65.3654 82.0154 65.3097 82.0986 65.2396 82.1687Z" stroke="white"/>
<path d="M81.3226 81.671C81.3137 81.8582 81.2353 82.0359 81.1022 82.169C80.9606 82.3105 80.7685 82.39 80.5683 82.3899C80.3681 82.3898 80.1762 82.3102 80.0346 82.1686C79.8931 82.027 79.8137 81.835 79.8137 81.6348C79.8138 81.4347 79.8933 81.2428 80.0349 81.1014C80.1764 80.96 80.3683 80.8805 80.5684 80.8806C80.7685 80.8807 80.9604 80.9602 81.1018 81.1018C81.2432 81.2433 81.3227 81.4352 81.3226 81.6353L81.3226 81.671Z" stroke="white"/>
<path d="M96.9654 81.1018L97.319 80.7483L96.9654 81.1018C97.1069 81.2433 97.1864 81.4352 97.1864 81.6353C97.1864 81.8354 97.1069 82.0273 96.9654 82.1688L97.319 82.5223L96.9654 82.1688C96.8239 82.3103 96.632 82.3897 96.4319 82.3897C96.2318 82.3897 96.0399 82.3103 95.8985 82.1688L95.5449 82.5223L95.8985 82.1688C95.757 82.0273 95.6775 81.8354 95.6775 81.6353C95.6775 81.4352 95.757 81.2433 95.8985 81.1018C96.0399 80.9603 96.2318 80.8809 96.4319 80.8809C96.632 80.8809 96.8239 80.9603 96.9654 81.1018Z" stroke="white"/>
<path d="M111.761 82.1688L111.407 82.5223L111.761 82.1688C111.619 82.0273 111.54 81.8354 111.54 81.6353C111.54 81.4352 111.619 81.2433 111.761 81.1018C111.902 80.9603 112.094 80.8809 112.294 80.8809C112.494 80.8809 112.686 80.9603 112.827 81.1018C112.969 81.2433 113.048 81.4352 113.048 81.6353C113.048 81.8354 112.969 82.0273 112.827 82.1688C112.686 82.3103 112.494 82.3897 112.294 82.3897C112.094 82.3897 111.902 82.3103 111.761 82.1688Z" stroke="white"/>
<path d="M128.912 81.6353C128.912 81.8354 128.832 82.0273 128.691 82.1688L129.045 82.5223L128.691 82.1688C128.55 82.3102 128.358 82.3897 128.158 82.3897C127.957 82.3897 127.766 82.3103 127.624 82.1688L127.27 82.5223L127.624 82.1688C127.483 82.0273 127.403 81.8354 127.403 81.6353C127.403 81.4352 127.483 81.2433 127.624 81.1018C127.766 80.9603 127.957 80.8809 128.158 80.8809C128.358 80.8809 128.55 80.9603 128.691 81.1018C128.832 81.2433 128.912 81.4352 128.912 81.6353Z" stroke="white"/>
<path d="M144.774 81.6353C144.774 81.7344 144.754 81.8325 144.716 81.924L145.162 82.1089L144.716 81.924C144.678 82.0155 144.623 82.0987 144.553 82.1687C144.483 82.2387 144.399 82.2943 144.308 82.3322C144.216 82.37 144.118 82.3895 144.019 82.3895C143.92 82.3895 143.822 82.3699 143.73 82.332L143.539 82.7938L143.73 82.332C143.639 82.294 143.556 82.2384 143.486 82.1683C143.416 82.0983 143.36 82.0151 143.322 81.9235C143.284 81.832 143.265 81.7339 143.265 81.6348C143.265 81.4347 143.345 81.2428 143.486 81.1014C143.628 80.96 143.819 80.8805 144.02 80.8806C144.22 80.8807 144.412 80.9602 144.553 81.1018C144.694 81.2433 144.774 81.4352 144.774 81.6353Z" stroke="white"/>
<path d="M160.637 81.6353C160.637 81.8354 160.557 82.0273 160.416 82.1688L160.769 82.5223L160.416 82.1688C160.274 82.3102 160.082 82.3897 159.882 82.3897C159.682 82.3897 159.49 82.3103 159.349 82.1688L158.995 82.5223L159.349 82.1688C159.207 82.0273 159.128 81.8354 159.128 81.6353C159.128 81.4352 159.207 81.2433 159.349 81.1018C159.49 80.9603 159.682 80.8809 159.882 80.8809C160.082 80.8809 160.274 80.9603 160.416 81.1018C160.557 81.2433 160.637 81.4352 160.637 81.6353Z" stroke="white"/>
<path d="M176.5 81.6353C176.5 81.8354 176.42 82.0273 176.279 82.1688L176.632 82.5223L176.279 82.1688C176.137 82.3102 175.945 82.3897 175.745 82.3897C175.545 82.3897 175.353 82.3103 175.212 82.1688L174.858 82.5223L175.212 82.1688C175.07 82.0273 174.991 81.8354 174.991 81.6353C174.991 81.4352 175.07 81.2433 175.212 81.1018C175.353 80.9603 175.545 80.8809 175.745 80.8809C175.945 80.8809 176.137 80.9603 176.279 81.1018C176.42 81.2433 176.5 81.4352 176.5 81.6353Z" stroke="white"/>
<path d="M0.721037 98.2449L0.413388 98.5523L0.721037 98.2449C0.579443 98.1032 0.499933 97.9111 0.5 97.7108V97.7106C0.5 97.5103 0.579572 97.3182 0.721215 97.1765C0.862858 97.0349 1.05497 96.9553 1.25527 96.9553C1.45558 96.9553 1.64769 97.0349 1.78933 97.1765C1.93098 97.3182 2.01055 97.5103 2.01055 97.7106V97.7113C2.01055 97.7113 2.01055 97.7114 2.01055 97.7114C2.01044 97.9117 1.9308 98.1037 1.78916 98.2453C1.64747 98.3868 1.45534 98.4664 1.25502 98.4663C1.05471 98.4662 0.862632 98.3866 0.721037 98.2449Z" stroke="white"/>
<path d="M16.829 98.4078L16.6375 98.8697L16.829 98.4078C16.7375 98.3699 16.6544 98.3143 16.5843 98.2442C16.5143 98.1741 16.4587 98.0909 16.4209 97.9994C16.383 97.9078 16.3635 97.8097 16.3635 97.7107V97.7105C16.3635 97.5104 16.443 97.3185 16.5845 97.177C16.726 97.0355 16.9179 96.9561 17.118 96.9561C17.3181 96.9561 17.5099 97.0355 17.6514 97.177C17.7929 97.3185 17.8724 97.5104 17.8724 97.7105V97.7112C17.8724 97.7112 17.8724 97.7113 17.8724 97.7113C17.8723 97.8103 17.8528 97.9084 17.8149 97.9999C17.7769 98.0914 17.7213 98.1745 17.6513 98.2446C17.5812 98.3146 17.498 98.3701 17.4064 98.408C17.3149 98.4459 17.2168 98.4654 17.1177 98.4654C17.0186 98.4653 16.9205 98.4458 16.829 98.4078Z" stroke="white"/>
<path d="M33.5142 97.178L33.8678 96.8244L33.5142 97.178C33.6557 97.3195 33.7352 97.5114 33.7352 97.7115C33.7352 97.9116 33.6557 98.1035 33.5142 98.2449L33.8678 98.5985L33.5142 98.2449C33.3727 98.3864 33.1808 98.4659 32.9808 98.4659C32.7807 98.4659 32.5888 98.3864 32.4473 98.2449L32.0937 98.5985L32.4473 98.2449C32.3058 98.1035 32.2263 97.9116 32.2263 97.7115C32.2263 97.5114 32.3058 97.3195 32.4473 97.178C32.5888 97.0365 32.7807 96.957 32.9808 96.957C33.1808 96.957 33.3727 97.0365 33.5142 97.178Z" stroke="white"/>
<path d="M49.3773 97.178L49.7308 96.8244L49.3773 97.178C49.5187 97.3195 49.5982 97.5114 49.5982 97.7115C49.5982 97.9116 49.5187 98.1035 49.3773 98.2449L49.7308 98.5985L49.3773 98.2449C49.2358 98.3864 49.0439 98.4659 48.8438 98.4659C48.6437 98.4659 48.4518 98.3864 48.3103 98.2449L47.9568 98.5985L48.3103 98.2449C48.1688 98.1035 48.0894 97.9116 48.0894 97.7115C48.0894 97.5114 48.1688 97.3195 48.3103 97.178C48.4518 97.0365 48.6437 96.957 48.8438 96.957C49.0439 96.957 49.2358 97.0365 49.3773 97.178Z" stroke="white"/>
<path d="M64.1721 98.2447L63.8184 98.5981L64.1721 98.2447C64.102 98.1746 64.0464 98.0913 64.0085 97.9997C63.9706 97.9081 63.9511 97.81 63.9512 97.7108V97.7107C63.9512 97.5105 64.0307 97.3185 64.1723 97.1769C64.3138 97.0353 64.5058 96.9558 64.706 96.9558C64.9062 96.9558 65.0982 97.0353 65.2398 97.1769C65.3814 97.3185 65.4609 97.5105 65.4609 97.7107V97.7113C65.4609 97.7114 65.4609 97.7114 65.4609 97.7115C65.4608 97.8106 65.4413 97.9087 65.4033 98.0002C65.3654 98.0918 65.3097 98.1749 65.2396 98.245C65.1695 98.3151 65.0863 98.3707 64.9947 98.4086C64.9031 98.4465 64.8049 98.466 64.7058 98.4659C64.6066 98.4659 64.5085 98.4463 64.4169 98.4084C64.3253 98.3704 64.2422 98.3148 64.1721 98.2447Z" stroke="white"/>
<path d="M79.8137 97.7107V97.7105C79.8137 97.5104 79.8932 97.3185 80.0347 97.177C80.1762 97.0355 80.3681 96.9561 80.5682 96.9561C80.7682 96.9561 80.9601 97.0355 81.1016 97.177C81.2431 97.3185 81.3226 97.5104 81.3226 97.7105V97.7466C81.3185 97.8336 81.2993 97.9194 81.2659 98C81.2279 98.0916 81.1723 98.1748 81.1022 98.2449C81.0321 98.3149 80.9488 98.3705 80.8572 98.4084C80.7656 98.4463 80.6675 98.4658 80.5683 98.4658C80.4692 98.4657 80.3711 98.4462 80.2795 98.4082C80.1879 98.3702 80.1047 98.3146 80.0346 98.2445C79.9646 98.1744 79.909 98.0912 79.8711 97.9996C79.8332 97.908 79.8137 97.8098 79.8137 97.7107Z" stroke="white"/>
<path d="M96.9654 97.178L97.319 96.8244L96.9654 97.178C97.1069 97.3195 97.1864 97.5114 97.1864 97.7115C97.1864 97.9116 97.1069 98.1035 96.9654 98.2449L97.319 98.5985L96.9654 98.2449C96.8239 98.3864 96.632 98.4659 96.4319 98.4659C96.2318 98.4659 96.0399 98.3864 95.8985 98.2449L95.5449 98.5985L95.8985 98.2449C95.757 98.1035 95.6775 97.9116 95.6775 97.7115C95.6775 97.5114 95.757 97.3195 95.8985 97.178C96.0399 97.0365 96.2318 96.957 96.4319 96.957C96.632 96.957 96.8239 97.0365 96.9654 97.178Z" stroke="white"/>
<path d="M111.761 98.2449L111.407 98.5985L111.761 98.2449C111.619 98.1035 111.54 97.9116 111.54 97.7115C111.54 97.5114 111.619 97.3195 111.761 97.178C111.902 97.0365 112.094 96.957 112.294 96.957C112.494 96.957 112.686 97.0365 112.827 97.178C112.969 97.3195 113.048 97.5114 113.048 97.7115C113.048 97.9116 112.969 98.1035 112.827 98.2449C112.686 98.3864 112.494 98.4659 112.294 98.4659C112.094 98.4659 111.902 98.3864 111.761 98.2449Z" stroke="white"/>
<path d="M128.912 97.7115C128.912 97.9116 128.832 98.1035 128.691 98.2449L129.045 98.5985L128.691 98.2449C128.55 98.3864 128.358 98.4659 128.158 98.4659C127.957 98.4659 127.766 98.3864 127.624 98.2449L127.27 98.5985L127.624 98.2449C127.483 98.1035 127.403 97.9116 127.403 97.7115C127.403 97.5114 127.483 97.3195 127.624 97.178C127.766 97.0365 127.957 96.957 128.158 96.957C128.358 96.957 128.55 97.0365 128.691 97.178C128.832 97.3195 128.912 97.5114 128.912 97.7115Z" stroke="white"/>
<path d="M143.265 97.7107V97.7105C143.265 97.5104 143.344 97.3185 143.486 97.177C143.627 97.0355 143.819 96.9561 144.019 96.9561C144.219 96.9561 144.411 97.0355 144.553 97.177C144.694 97.3185 144.774 97.5104 144.774 97.7105V97.7112C144.774 97.7112 144.774 97.7113 144.774 97.7113C144.774 97.9114 144.694 98.1032 144.553 98.2446C144.411 98.386 144.219 98.4654 144.019 98.4654C143.819 98.4653 143.627 98.3857 143.486 98.2442C143.344 98.1027 143.265 97.9108 143.265 97.7107Z" stroke="white"/>
<path d="M160.637 97.7115C160.637 97.9116 160.557 98.1035 160.416 98.2449L160.769 98.5985L160.416 98.2449C160.274 98.3864 160.082 98.4659 159.882 98.4659C159.682 98.4659 159.49 98.3864 159.349 98.2449L158.995 98.5985L159.349 98.2449C159.207 98.1035 159.128 97.9116 159.128 97.7115C159.128 97.5114 159.207 97.3195 159.349 97.178C159.49 97.0365 159.682 96.957 159.882 96.957C160.082 96.957 160.274 97.0365 160.416 97.178C160.557 97.3195 160.637 97.5114 160.637 97.7115Z" stroke="white"/>
<path d="M176.5 97.7115C176.5 97.9116 176.42 98.1035 176.279 98.2449L176.632 98.5985L176.279 98.2449C176.137 98.3864 175.945 98.4659 175.745 98.4659C175.545 98.4659 175.353 98.3864 175.212 98.2449L174.858 98.5985L175.212 98.2449C175.07 98.1035 174.991 97.9116 174.991 97.7115C174.991 97.5114 175.07 97.3195 175.212 97.178C175.353 97.0365 175.545 96.957 175.745 96.957C175.945 96.957 176.137 97.0365 176.279 97.178C176.42 97.3195 176.5 97.5114 176.5 97.7115Z" stroke="white"/>
<path d="M2.01058 113.787C2.01058 113.987 1.9311 114.179 1.78962 114.32C1.64813 114.462 1.45623 114.541 1.25615 114.541C1.05606 114.541 0.864167 114.462 0.722679 114.32C0.581193 114.179 0.501709 113.987 0.501709 113.787C0.501709 113.587 0.581196 113.395 0.722679 113.253C0.864158 113.112 1.05605 113.032 1.25615 113.032C1.45624 113.032 1.64814 113.112 1.78962 113.253C1.9311 113.395 2.01058 113.587 2.01058 113.787Z" stroke="white"/>
<path d="M17.8724 113.787C17.8724 113.987 17.7929 114.179 17.6514 114.32C17.5099 114.462 17.318 114.541 17.118 114.541C16.9179 114.541 16.726 114.462 16.5845 114.32C16.443 114.179 16.3635 113.987 16.3635 113.787C16.3635 113.587 16.443 113.395 16.5845 113.253C16.726 113.112 16.9179 113.032 17.118 113.032C17.3181 113.032 17.51 113.112 17.6514 113.253C17.7929 113.395 17.8724 113.587 17.8724 113.787Z" stroke="white"/>
<path d="M33.7357 113.8C33.7383 113.901 33.7208 114.001 33.6841 114.095L34.1498 114.277L33.6841 114.095C33.6475 114.188 33.5924 114.274 33.5221 114.346L33.8805 114.695L33.5221 114.346C33.4519 114.418 33.3679 114.476 33.2752 114.515C33.1824 114.554 33.0827 114.574 32.982 114.574C32.8813 114.574 32.7816 114.554 32.6887 114.515L32.4947 114.976L32.6887 114.515C32.5959 114.476 32.5119 114.419 32.4415 114.347L32.0837 114.696L32.4415 114.347C32.3712 114.275 32.316 114.189 32.2792 114.095C32.2424 114.002 32.2248 113.902 32.2273 113.801C32.2322 113.604 32.3138 113.417 32.4546 113.28C32.5954 113.143 32.7843 113.066 32.981 113.065C33.1777 113.065 33.3667 113.142 33.5077 113.279C33.6486 113.416 33.7305 113.603 33.7357 113.8Z" stroke="white"/>
<path d="M49.3847 114.346L49.743 114.695L49.3847 114.346C49.3145 114.418 49.2305 114.476 49.1377 114.515C49.0449 114.554 48.9453 114.574 48.8445 114.574C48.7438 114.574 48.6441 114.554 48.5513 114.515L48.3573 114.976L48.5513 114.515C48.4585 114.476 48.3744 114.419 48.3041 114.347L47.9462 114.696L48.3041 114.347C48.2338 114.275 48.1786 114.189 48.1418 114.095C48.105 114.002 48.0873 113.902 48.0898 113.801C48.0948 113.604 48.1763 113.417 48.3171 113.28C48.4579 113.143 48.6468 113.066 48.8435 113.065C49.0402 113.065 49.2292 113.142 49.3702 113.279C49.5112 113.416 49.593 113.603 49.5982 113.8C49.6009 113.901 49.5834 114.001 49.5467 114.095C49.51 114.188 49.4549 114.274 49.3847 114.346Z" stroke="white"/>
<path d="M65.461 113.787C65.461 113.987 65.3815 114.179 65.2401 114.32C65.0986 114.462 64.9067 114.541 64.7066 114.541C64.5065 114.541 64.3146 114.462 64.1731 114.32C64.0316 114.179 63.9521 113.987 63.9521 113.787C63.9521 113.587 64.0316 113.395 64.1731 113.253C64.3146 113.112 64.5065 113.032 64.7066 113.032C64.9067 113.032 65.0986 113.112 65.2401 113.253L65.5936 112.9L65.2401 113.253C65.3815 113.395 65.461 113.587 65.461 113.787Z" stroke="white"/>
<path d="M81.3236 113.787C81.3236 113.987 81.2441 114.179 81.1026 114.32C80.9611 114.462 80.7692 114.541 80.5691 114.541C80.3691 114.541 80.1772 114.462 80.0357 114.32C79.8942 114.179 79.8147 113.987 79.8147 113.787C79.8147 113.587 79.8942 113.395 80.0357 113.253C80.1771 113.112 80.369 113.032 80.5691 113.032C80.7692 113.032 80.9611 113.112 81.1026 113.253C81.2441 113.395 81.3236 113.587 81.3236 113.787Z" stroke="white"/>
<path d="M97.1866 113.8C97.1893 113.901 97.1717 114.001 97.1351 114.095C97.0984 114.188 97.0433 114.274 96.9731 114.346C96.9028 114.418 96.8189 114.476 96.7261 114.515C96.6333 114.554 96.5336 114.574 96.4329 114.574C96.3322 114.574 96.2325 114.554 96.1397 114.515L95.9457 114.976L96.1397 114.515C96.0468 114.476 95.9628 114.419 95.8925 114.347L95.5346 114.696L95.8925 114.347C95.8221 114.275 95.7669 114.189 95.7301 114.095C95.6933 114.002 95.6757 113.902 95.6782 113.801C95.6832 113.604 95.7647 113.417 95.9055 113.28C96.0463 113.143 96.2352 113.066 96.4319 113.065C96.6286 113.065 96.8176 113.142 96.9586 113.279C97.0996 113.416 97.1814 113.603 97.1866 113.8Z" stroke="white"/>
<path d="M112.838 114.357L112.838 114.357C112.768 114.43 112.684 114.488 112.59 114.528C112.497 114.567 112.397 114.588 112.295 114.588C112.194 114.588 112.094 114.568 112 114.528C111.907 114.488 111.823 114.43 111.752 114.358C111.682 114.285 111.627 114.198 111.59 114.104C111.554 114.009 111.537 113.908 111.541 113.807C111.548 113.611 111.63 113.426 111.771 113.291C111.911 113.155 112.099 113.079 112.294 113.079C112.49 113.079 112.678 113.155 112.818 113.29C112.959 113.426 113.042 113.61 113.049 113.805C113.053 113.907 113.036 114.008 113 114.103C112.964 114.197 112.909 114.284 112.838 114.357Z" stroke="white"/>
<path d="M128.691 114.321L129.045 114.674L128.691 114.321C128.621 114.391 128.538 114.446 128.447 114.484C128.355 114.522 128.257 114.542 128.158 114.542C128.059 114.542 127.961 114.523 127.869 114.485C127.778 114.447 127.694 114.391 127.624 114.321C127.554 114.251 127.499 114.168 127.461 114.077C127.423 113.985 127.403 113.887 127.403 113.788C127.403 113.588 127.482 113.396 127.624 113.255C127.765 113.113 127.957 113.033 128.157 113.033C128.357 113.033 128.549 113.112 128.691 113.254C128.832 113.395 128.912 113.587 128.912 113.787C128.912 113.886 128.893 113.984 128.855 114.076C128.817 114.167 128.761 114.251 128.691 114.321Z" stroke="white"/>
<path d="M144.774 113.787C144.774 113.987 144.694 114.179 144.553 114.32C144.411 114.462 144.219 114.541 144.019 114.541C143.819 114.541 143.627 114.462 143.486 114.32C143.344 114.179 143.265 113.987 143.265 113.787C143.265 113.587 143.344 113.395 143.486 113.253C143.627 113.112 143.819 113.032 144.019 113.032C144.219 113.032 144.411 113.112 144.553 113.253C144.694 113.395 144.774 113.587 144.774 113.787Z" stroke="white"/>
<path d="M160.637 113.805C160.641 113.907 160.624 114.008 160.588 114.103C160.552 114.197 160.497 114.284 160.427 114.357C160.356 114.43 160.272 114.488 160.179 114.528C160.086 114.567 159.985 114.588 159.884 114.588C159.782 114.588 159.682 114.568 159.589 114.528C159.495 114.488 159.411 114.43 159.341 114.358C159.27 114.285 159.215 114.198 159.179 114.104C159.143 114.009 159.126 113.908 159.129 113.807C159.136 113.611 159.219 113.426 159.359 113.291C159.5 113.155 159.688 113.079 159.883 113.079C160.078 113.079 160.266 113.155 160.407 113.29C160.547 113.426 160.63 113.61 160.637 113.805Z" stroke="white"/>
<path d="M176.286 114.346L176.644 114.695L176.286 114.346C176.216 114.418 176.132 114.476 176.039 114.515C175.946 114.554 175.847 114.574 175.746 114.574C175.645 114.574 175.545 114.554 175.453 114.515L175.271 114.947L175.453 114.515C175.36 114.476 175.276 114.419 175.205 114.347L174.848 114.696L175.205 114.347C175.135 114.275 175.08 114.189 175.043 114.095C175.006 114.002 174.989 113.902 174.991 113.801C174.996 113.604 175.078 113.417 175.218 113.28C175.359 113.143 175.548 113.066 175.745 113.065C175.942 113.065 176.131 113.142 176.272 113.279C176.413 113.416 176.494 113.603 176.5 113.8C176.502 113.901 176.485 114.001 176.448 114.095C176.411 114.188 176.356 114.274 176.286 114.346Z" stroke="white"/>
<path d="M0.721037 130.397L0.369653 130.748L0.721037 130.397C0.650922 130.327 0.595318 130.244 0.557396 130.152C0.51947 130.06 0.499967 129.962 0.5 129.863V129.863C0.5 129.662 0.579574 129.47 0.721215 129.329C0.862849 129.187 1.05495 129.107 1.25527 129.107C1.4556 129.107 1.6477 129.187 1.78933 129.329C1.93097 129.47 2.01055 129.662 2.01055 129.863V129.863C2.01055 129.863 2.01055 129.863 2.01055 129.864C2.01049 129.963 1.99093 130.061 1.95296 130.152C1.91498 130.244 1.85932 130.327 1.78916 130.397C1.719 130.467 1.63572 130.523 1.54407 130.561C1.45244 130.599 1.35422 130.618 1.25502 130.618C1.15583 130.618 1.05762 130.599 0.96601 130.561C0.8744 130.523 0.791156 130.467 0.721037 130.397Z" stroke="white"/>
<path d="M16.3635 129.863V129.863C16.3635 129.663 16.443 129.471 16.5845 129.329C16.726 129.188 16.9179 129.108 17.118 129.108C17.318 129.108 17.5099 129.188 17.6514 129.329C17.7929 129.471 17.8724 129.663 17.8724 129.863V129.864C17.8724 129.864 17.8724 129.864 17.8724 129.864C17.8723 129.963 17.8528 130.061 17.8149 130.152C17.7769 130.244 17.7213 130.327 17.6513 130.397C17.5812 130.467 17.498 130.522 17.4064 130.56C17.3149 130.598 17.2168 130.618 17.1177 130.618C17.0187 130.618 16.9206 130.598 16.829 130.56C16.7375 130.522 16.6543 130.467 16.5843 130.397C16.5143 130.326 16.4587 130.243 16.4209 130.152C16.383 130.06 16.3635 129.962 16.3635 129.863Z" stroke="white"/>
<path d="M33.7352 129.864C33.7352 130.064 33.6557 130.256 33.5142 130.397C33.3727 130.539 33.1808 130.618 32.9808 130.618C32.7807 130.618 32.5888 130.539 32.4473 130.397C32.3058 130.256 32.2263 130.064 32.2263 129.864C32.2263 129.664 32.3058 129.472 32.4473 129.33C32.5888 129.189 32.7807 129.109 32.9808 129.109C33.1809 129.109 33.3727 129.189 33.5142 129.33L33.8678 128.977L33.5142 129.33C33.6557 129.472 33.7352 129.664 33.7352 129.864Z" stroke="white"/>
<path d="M49.5982 129.864C49.5982 130.064 49.5187 130.256 49.3773 130.397C49.2358 130.539 49.0439 130.618 48.8438 130.618C48.6437 130.618 48.4518 130.539 48.3103 130.397C48.1688 130.256 48.0894 130.064 48.0894 129.864C48.0894 129.664 48.1688 129.472 48.3103 129.33C48.4518 129.189 48.6437 129.109 48.8438 129.109C49.0439 129.109 49.2358 129.189 49.3773 129.33L49.7308 128.977L49.3773 129.33C49.5187 129.472 49.5982 129.664 49.5982 129.864Z" stroke="white"/>
<path d="M64.1721 130.397L63.8184 130.75L64.1721 130.397C64.102 130.327 64.0464 130.243 64.0085 130.152C63.9706 130.06 63.9511 129.962 63.9512 129.863V129.863C63.9512 129.663 64.0307 129.471 64.1723 129.329C64.3138 129.187 64.5058 129.108 64.706 129.108C64.9062 129.108 65.0982 129.187 65.2398 129.329C65.3814 129.471 65.4609 129.663 65.4609 129.863V129.863C65.4609 129.864 65.4609 129.864 65.4609 129.864C65.4608 129.963 65.4413 130.061 65.4033 130.152C65.3654 130.244 65.3097 130.327 65.2396 130.397C65.1695 130.467 65.0863 130.523 64.9947 130.561C64.9031 130.599 64.8049 130.618 64.7058 130.618C64.6066 130.618 64.5085 130.598 64.4169 130.56C64.3254 130.523 64.2422 130.467 64.1721 130.397Z" stroke="white"/>
<path d="M80.0346 130.397L79.7042 130.727L80.0346 130.397C79.9646 130.327 79.909 130.243 79.8711 130.152C79.8332 130.06 79.8137 129.962 79.8137 129.863V129.863C79.8137 129.663 79.8932 129.471 80.0347 129.329C80.1762 129.188 80.3681 129.108 80.5682 129.108C80.7682 129.108 80.9601 129.188 81.1016 129.329C81.2431 129.471 81.3226 129.663 81.3226 129.863V129.899C81.3185 129.986 81.2993 130.072 81.2659 130.152C81.2279 130.244 81.1723 130.327 81.1022 130.397C81.0321 130.467 80.9488 130.523 80.8572 130.561C80.7656 130.599 80.6675 130.618 80.5683 130.618C80.4692 130.618 80.3711 130.599 80.2795 130.561C80.1879 130.523 80.1047 130.467 80.0346 130.397Z" stroke="white"/>
<path d="M97.1864 129.864C97.1864 130.064 97.1069 130.256 96.9654 130.397C96.8239 130.539 96.632 130.618 96.4319 130.618C96.2318 130.618 96.0399 130.539 95.8985 130.397C95.757 130.256 95.6775 130.064 95.6775 129.864C95.6775 129.664 95.757 129.472 95.8985 129.33C96.0399 129.189 96.2318 129.109 96.4319 129.109C96.632 129.109 96.8239 129.189 96.9654 129.33L97.319 128.977L96.9654 129.33C97.1069 129.472 97.1864 129.664 97.1864 129.864Z" stroke="white"/>
<path d="M113.048 129.864C113.048 130.064 112.969 130.256 112.827 130.397C112.686 130.539 112.494 130.618 112.294 130.618C112.094 130.618 111.902 130.539 111.761 130.397C111.619 130.256 111.54 130.064 111.54 129.864C111.54 129.664 111.619 129.472 111.761 129.33C111.902 129.189 112.094 129.109 112.294 129.109C112.494 129.109 112.686 129.189 112.827 129.33C112.969 129.472 113.048 129.664 113.048 129.864Z" stroke="white"/>
<path d="M128.912 129.864C128.912 130.064 128.832 130.256 128.691 130.397C128.55 130.539 128.358 130.618 128.158 130.618C127.957 130.618 127.766 130.539 127.624 130.397C127.483 130.256 127.403 130.064 127.403 129.864C127.403 129.664 127.483 129.472 127.624 129.33C127.766 129.189 127.957 129.109 128.158 129.109C128.358 129.109 128.55 129.189 128.691 129.33C128.832 129.472 128.912 129.664 128.912 129.864Z" stroke="white"/>
<path d="M143.265 129.863V129.863C143.265 129.663 143.344 129.471 143.486 129.329C143.627 129.188 143.819 129.108 144.019 129.108C144.219 129.108 144.411 129.188 144.553 129.329C144.694 129.471 144.774 129.663 144.774 129.863V129.864C144.774 129.864 144.774 129.864 144.774 129.864C144.774 130.064 144.694 130.255 144.553 130.397C144.411 130.538 144.219 130.618 144.019 130.618C143.819 130.618 143.627 130.538 143.486 130.397C143.344 130.255 143.265 130.063 143.265 129.863Z" stroke="white"/>
<path d="M160.637 129.864C160.637 130.064 160.557 130.256 160.416 130.397C160.274 130.539 160.082 130.618 159.882 130.618C159.682 130.618 159.49 130.539 159.349 130.397C159.207 130.256 159.128 130.064 159.128 129.864C159.128 129.664 159.207 129.472 159.349 129.33C159.49 129.189 159.682 129.109 159.882 129.109C160.082 129.109 160.274 129.189 160.416 129.33C160.557 129.472 160.637 129.664 160.637 129.864Z" stroke="white"/>
<path d="M176.5 129.864C176.5 130.064 176.42 130.256 176.279 130.397C176.137 130.539 175.945 130.618 175.745 130.618C175.545 130.618 175.353 130.539 175.212 130.397C175.07 130.256 174.991 130.064 174.991 129.864C174.991 129.664 175.07 129.472 175.212 129.33C175.353 129.189 175.545 129.109 175.745 129.109C175.945 129.109 176.137 129.189 176.279 129.33C176.42 129.472 176.5 129.664 176.5 129.864Z" stroke="white"/>
<path d="M2.01058 145.94C2.01058 146.14 1.9311 146.332 1.78962 146.473L2.14317 146.827L1.78962 146.473C1.64814 146.615 1.45624 146.694 1.25615 146.694C1.05605 146.694 0.864158 146.615 0.722679 146.473C0.581196 146.332 0.501709 146.14 0.501709 145.94C0.501709 145.74 0.581193 145.548 0.722679 145.407C0.864167 145.265 1.05606 145.186 1.25615 145.186C1.45623 145.186 1.64813 145.265 1.78962 145.407C1.9311 145.548 2.01058 145.74 2.01058 145.94Z" stroke="white"/>
<path d="M17.8724 145.94C17.8724 146.14 17.7929 146.332 17.6514 146.473C17.51 146.615 17.3181 146.694 17.118 146.694C16.9179 146.694 16.726 146.615 16.5845 146.473C16.443 146.332 16.3635 146.14 16.3635 145.94C16.3635 145.74 16.443 145.548 16.5845 145.407C16.726 145.265 16.9179 145.186 17.118 145.186C17.318 145.186 17.5099 145.265 17.6514 145.407C17.7929 145.548 17.8724 145.74 17.8724 145.94Z" stroke="white"/>
<path d="M33.7357 145.953C33.7383 146.054 33.7208 146.154 33.6841 146.248C33.6473 146.341 33.5922 146.427 33.522 146.499C33.4517 146.571 33.3677 146.629 33.2749 146.668L33.4694 147.128L33.2749 146.668C33.1821 146.707 33.0824 146.727 32.9817 146.727C32.881 146.727 32.7813 146.707 32.6885 146.668C32.5957 146.629 32.5117 146.572 32.4414 146.499L32.0834 146.848L32.4414 146.499C32.371 146.427 32.3159 146.342 32.2791 146.248C32.2423 146.154 32.2247 146.054 32.2273 145.953C32.2323 145.757 32.3139 145.57 32.4548 145.433C32.5956 145.295 32.7845 145.218 32.9812 145.218C33.178 145.218 33.3669 145.295 33.5078 145.432C33.6488 145.569 33.7305 145.756 33.7357 145.953Z" stroke="white"/>
<path d="M49.1375 146.668L49.3319 147.128L49.1375 146.668C49.0447 146.707 48.945 146.727 48.8443 146.727C48.7436 146.727 48.6439 146.707 48.5511 146.668C48.4583 146.629 48.3742 146.572 48.3039 146.499L47.9459 146.848L48.3039 146.499C48.2336 146.427 48.1784 146.342 48.1417 146.248C48.1049 146.154 48.0873 146.054 48.0898 145.953C48.0949 145.757 48.1765 145.57 48.3173 145.433C48.4582 145.295 48.6471 145.218 48.8438 145.218C49.0405 145.218 49.2295 145.295 49.3704 145.432C49.5113 145.569 49.5931 145.756 49.5982 145.953C49.6009 146.054 49.5833 146.154 49.5466 146.248C49.5099 146.341 49.4548 146.427 49.3845 146.499C49.3143 146.571 49.2303 146.629 49.1375 146.668Z" stroke="white"/>
<path d="M65.2401 145.407L65.5936 145.053L65.2401 145.407C65.3815 145.548 65.461 145.74 65.461 145.94C65.461 146.14 65.3815 146.332 65.2401 146.473L65.5936 146.827L65.2401 146.473C65.0986 146.615 64.9067 146.694 64.7066 146.694C64.5065 146.694 64.3146 146.615 64.1731 146.473C64.0316 146.332 63.9521 146.14 63.9521 145.94C63.9521 145.74 64.0316 145.548 64.1731 145.407C64.3146 145.265 64.5065 145.186 64.7066 145.186C64.9067 145.186 65.0986 145.265 65.2401 145.407Z" stroke="white"/>
<path d="M81.3236 145.94C81.3236 146.14 81.2441 146.332 81.1026 146.473C80.9611 146.615 80.7692 146.694 80.5691 146.694C80.369 146.694 80.1771 146.615 80.0357 146.473C79.8942 146.332 79.8147 146.14 79.8147 145.94C79.8147 145.74 79.8942 145.548 80.0357 145.407C80.1772 145.265 80.3691 145.186 80.5691 145.186C80.7692 145.186 80.9611 145.265 81.1026 145.407C81.2441 145.548 81.3236 145.74 81.3236 145.94Z" stroke="white"/>
<path d="M96.7259 146.668L96.9203 147.128L96.7259 146.668C96.6331 146.707 96.5334 146.727 96.4327 146.727C96.332 146.727 96.2323 146.707 96.1394 146.668C96.0466 146.629 95.9626 146.572 95.8923 146.499L95.5343 146.848L95.8923 146.499C95.822 146.427 95.7668 146.342 95.73 146.248C95.6933 146.154 95.6757 146.054 95.6782 145.953C95.6832 145.757 95.7649 145.57 95.9057 145.433C96.0465 145.295 96.2355 145.218 96.4322 145.218C96.6289 145.218 96.8178 145.295 96.9588 145.432C97.0997 145.569 97.1815 145.756 97.1866 145.953C97.1892 146.054 97.1717 146.154 97.135 146.248C97.0983 146.341 97.0432 146.427 96.9729 146.499C96.9027 146.571 96.8187 146.629 96.7259 146.668Z" stroke="white"/>
<path d="M113.049 145.958C113.053 146.059 113.036 146.16 113 146.255L113.467 146.434L113 146.255C112.964 146.35 112.909 146.436 112.838 146.509L113.198 146.856L112.838 146.509C112.768 146.582 112.684 146.64 112.59 146.68C112.497 146.72 112.397 146.74 112.295 146.74C112.194 146.74 112.093 146.72 112 146.68C111.907 146.641 111.822 146.583 111.752 146.51C111.682 146.437 111.627 146.35 111.59 146.256C111.554 146.161 111.537 146.06 111.541 145.959C111.548 145.763 111.631 145.579 111.771 145.443C111.912 145.307 112.099 145.232 112.295 145.231C112.49 145.231 112.678 145.307 112.818 145.443L113.165 145.083L112.818 145.443C112.959 145.578 113.042 145.763 113.049 145.958Z" stroke="white"/>
<path d="M128.446 146.637L128.446 146.637C128.355 146.675 128.257 146.694 128.158 146.694C128.059 146.694 127.961 146.675 127.869 146.637C127.777 146.599 127.694 146.544 127.624 146.474C127.554 146.404 127.499 146.32 127.461 146.229C127.423 146.137 127.403 146.039 127.403 145.94C127.403 145.74 127.482 145.548 127.624 145.407C127.765 145.265 127.957 145.186 128.157 145.186C128.357 145.185 128.549 145.265 128.691 145.406L128.992 145.105L128.691 145.406C128.832 145.548 128.912 145.74 128.912 145.94C128.912 146.039 128.893 146.137 128.855 146.228C128.817 146.32 128.761 146.403 128.691 146.473C128.621 146.543 128.538 146.599 128.446 146.637Z" stroke="white"/>
<path d="M144.774 145.94C144.774 146.14 144.694 146.332 144.553 146.473C144.411 146.615 144.219 146.694 144.019 146.694C143.819 146.694 143.627 146.615 143.486 146.473C143.344 146.332 143.265 146.14 143.265 145.94C143.265 145.74 143.344 145.548 143.486 145.407C143.627 145.265 143.819 145.186 144.019 145.186C144.219 145.186 144.411 145.265 144.553 145.407C144.694 145.548 144.774 145.74 144.774 145.94Z" stroke="white"/>
<path d="M160.427 146.509L160.427 146.509C160.356 146.582 160.272 146.64 160.179 146.68C160.085 146.72 159.985 146.74 159.884 146.74C159.782 146.74 159.682 146.72 159.589 146.68C159.495 146.641 159.411 146.583 159.34 146.51C159.27 146.437 159.215 146.35 159.179 146.256C159.143 146.161 159.126 146.06 159.129 145.959C159.136 145.763 159.219 145.579 159.36 145.443C159.5 145.307 159.688 145.232 159.883 145.231C160.078 145.231 160.266 145.307 160.407 145.443C160.547 145.578 160.63 145.763 160.637 145.958C160.641 146.059 160.624 146.16 160.588 146.255C160.552 146.35 160.497 146.436 160.427 146.509Z" stroke="white"/>
<path d="M176.039 146.668L176.233 147.128L176.039 146.668C175.946 146.707 175.846 146.727 175.746 146.727C175.645 146.727 175.545 146.707 175.452 146.668C175.36 146.629 175.276 146.572 175.205 146.499L174.847 146.848L175.205 146.499C175.135 146.427 175.08 146.342 175.043 146.248C175.006 146.154 174.989 146.054 174.991 145.953C174.996 145.757 175.078 145.57 175.219 145.433C175.36 145.295 175.548 145.218 175.745 145.218C175.942 145.218 176.131 145.295 176.272 145.432C176.413 145.569 176.494 145.756 176.5 145.953C176.502 146.054 176.485 146.154 176.448 146.248C176.411 146.341 176.356 146.427 176.286 146.499C176.216 146.571 176.132 146.629 176.039 146.668Z" stroke="white"/>
<path d="M2.01055 162.016C2.01055 162.216 1.93098 162.408 1.78933 162.55C1.64769 162.691 1.45558 162.771 1.25527 162.771C1.05497 162.771 0.862858 162.691 0.721215 162.55C0.57957 162.408 0.5 162.216 0.5 162.016C0.5 161.815 0.579574 161.623 0.721215 161.481C0.862858 161.34 1.05497 161.26 1.25527 161.26C1.45558 161.26 1.64769 161.34 1.78933 161.481C1.93097 161.623 2.01055 161.815 2.01055 162.016Z" stroke="white"/>
<path d="M17.8724 162.016C17.8724 162.216 17.7929 162.408 17.6514 162.549C17.5099 162.691 17.318 162.77 17.118 162.77C16.9179 162.77 16.726 162.691 16.5845 162.549C16.443 162.408 16.3635 162.216 16.3635 162.016C16.3635 161.816 16.443 161.624 16.5845 161.482C16.726 161.341 16.9179 161.261 17.118 161.261C17.3181 161.261 17.51 161.341 17.6514 161.482C17.7929 161.624 17.8724 161.816 17.8724 162.016Z" stroke="white"/>
<path d="M33.7352 162.016C33.7352 162.216 33.6557 162.408 33.5142 162.549C33.3727 162.691 33.1808 162.77 32.9808 162.77C32.7807 162.77 32.5888 162.691 32.4473 162.549C32.3058 162.408 32.2263 162.216 32.2263 162.016C32.2263 161.816 32.3058 161.624 32.4473 161.482C32.5888 161.341 32.7807 161.261 32.9808 161.261C33.1809 161.261 33.3727 161.341 33.5142 161.482L33.8678 161.129L33.5142 161.482C33.6557 161.624 33.7352 161.816 33.7352 162.016Z" stroke="white"/>
<path d="M49.5982 162.016C49.5982 162.216 49.5187 162.408 49.3773 162.549C49.2358 162.691 49.0439 162.77 48.8438 162.77C48.6437 162.77 48.4518 162.691 48.3103 162.549C48.1688 162.408 48.0894 162.216 48.0894 162.016C48.0894 161.816 48.1688 161.624 48.3103 161.482C48.4518 161.341 48.6437 161.261 48.8438 161.261C49.0439 161.261 49.2358 161.341 49.3773 161.482L49.7308 161.129L49.3773 161.482C49.5187 161.624 49.5982 161.816 49.5982 162.016Z" stroke="white"/>
<path d="M65.4609 162.016C65.4609 162.216 65.3814 162.408 65.2398 162.549C65.0982 162.691 64.9062 162.77 64.706 162.77C64.5058 162.77 64.3138 162.691 64.1723 162.549C64.0307 162.408 63.9512 162.216 63.9512 162.016C63.9512 161.815 64.0307 161.623 64.1723 161.482C64.3138 161.34 64.5058 161.261 64.706 161.261C64.9062 161.261 65.0982 161.34 65.2398 161.482C65.3814 161.623 65.4609 161.815 65.4609 162.016Z" stroke="white"/>
<path d="M81.3226 162.051C81.3185 162.138 81.2994 162.224 81.266 162.305C81.228 162.396 81.1724 162.479 81.1023 162.549C81.0322 162.62 80.949 162.675 80.8575 162.713C80.7659 162.751 80.6677 162.771 80.5686 162.771C80.4694 162.771 80.3713 162.751 80.2797 162.713C80.1881 162.675 80.1049 162.62 80.0348 162.549C79.9647 162.479 79.9091 162.396 79.8712 162.305C79.8332 162.213 79.8137 162.115 79.8137 162.016C79.8137 161.816 79.8932 161.624 80.0347 161.482C80.1762 161.341 80.3681 161.261 80.5682 161.261C80.7683 161.261 80.9601 161.341 81.1016 161.482C81.2431 161.624 81.3226 161.816 81.3226 162.016V162.051Z" stroke="white"/>
<path d="M97.1864 162.016C97.1864 162.216 97.1069 162.408 96.9654 162.549C96.8239 162.691 96.632 162.77 96.4319 162.77C96.2318 162.77 96.0399 162.691 95.8985 162.549C95.757 162.408 95.6775 162.216 95.6775 162.016C95.6775 161.816 95.757 161.624 95.8985 161.482C96.0399 161.341 96.2318 161.261 96.4319 161.261C96.632 161.261 96.8239 161.341 96.9654 161.482L97.319 161.129L96.9654 161.482C97.1069 161.624 97.1864 161.816 97.1864 162.016Z" stroke="white"/>
<path d="M113.048 162.016C113.048 162.216 112.969 162.408 112.827 162.549C112.686 162.691 112.494 162.77 112.294 162.77C112.094 162.77 111.902 162.691 111.761 162.549C111.619 162.408 111.54 162.216 111.54 162.016C111.54 161.816 111.619 161.624 111.761 161.482C111.902 161.341 112.094 161.261 112.294 161.261C112.494 161.261 112.686 161.341 112.827 161.482C112.969 161.624 113.048 161.816 113.048 162.016Z" stroke="white"/>
<path d="M128.912 162.016C128.912 162.216 128.832 162.408 128.691 162.549C128.55 162.691 128.358 162.77 128.158 162.77C127.957 162.77 127.766 162.691 127.624 162.549C127.483 162.408 127.403 162.216 127.403 162.016C127.403 161.816 127.483 161.624 127.624 161.482C127.766 161.341 127.957 161.261 128.158 161.261C128.358 161.261 128.55 161.341 128.691 161.482C128.832 161.624 128.912 161.816 128.912 162.016Z" stroke="white"/>
<path d="M144.774 162.016C144.774 162.216 144.694 162.408 144.553 162.549C144.411 162.691 144.219 162.77 144.019 162.77C143.819 162.77 143.627 162.691 143.486 162.549C143.344 162.408 143.265 162.216 143.265 162.016C143.265 161.816 143.344 161.624 143.486 161.482C143.627 161.341 143.819 161.261 144.019 161.261C144.219 161.261 144.411 161.341 144.553 161.482C144.694 161.624 144.774 161.816 144.774 162.016Z" stroke="white"/>
<path d="M160.637 162.016C160.637 162.216 160.557 162.408 160.416 162.549C160.274 162.691 160.082 162.77 159.882 162.77C159.682 162.77 159.49 162.691 159.349 162.549C159.207 162.408 159.128 162.216 159.128 162.016C159.128 161.816 159.207 161.624 159.349 161.482C159.49 161.341 159.682 161.261 159.882 161.261C160.082 161.261 160.274 161.341 160.416 161.482C160.557 161.624 160.637 161.816 160.637 162.016Z" stroke="white"/>
<path d="M176.5 162.016C176.5 162.216 176.42 162.408 176.279 162.549C176.137 162.691 175.945 162.77 175.745 162.77C175.545 162.77 175.353 162.691 175.212 162.549C175.07 162.408 174.991 162.216 174.991 162.016C174.991 161.816 175.07 161.624 175.212 161.482C175.353 161.341 175.545 161.261 175.745 161.261C175.945 161.261 176.137 161.341 176.279 161.482C176.42 161.624 176.5 161.816 176.5 162.016Z" stroke="white"/>
</svg>
