<svg width="351" height="352" viewBox="0 0 351 352" fill="none" xmlns="http://www.w3.org/2000/svg">
<path d="M351 175.5C351 152.453 346.461 129.632 337.641 108.339C328.821 87.0464 315.894 67.6994 299.597 51.4028C283.301 35.1061 263.954 22.1788 242.661 13.3591C221.368 4.53944 198.547 -1.00742e-06 175.5 0C152.453 1.00742e-06 129.632 4.53944 108.339 13.3591C87.0464 22.1788 67.6994 35.1061 51.4028 51.4028C35.1061 67.6995 22.1788 87.0464 13.3591 108.339C4.53944 129.632 -2.01483e-06 152.453 0 175.5L175.5 175.5H351Z" fill="#191919"/>
<path d="M1 175C1 198.113 5.51357 220.999 14.283 242.352C23.0525 263.706 35.9061 283.108 52.1099 299.451C68.3137 315.794 87.5504 328.758 108.722 337.603C129.893 346.448 152.584 351 175.5 351C198.416 351 221.107 346.448 242.278 337.603C263.45 328.758 282.686 315.794 298.89 299.451C315.094 283.108 327.948 263.706 336.717 242.352C345.486 220.999 350 198.113 350 175" stroke="#191919" stroke-dasharray="4 4"/>
<path d="M11 175C11 196.799 15.2679 218.385 23.5599 238.525C31.8519 258.666 44.0057 276.965 59.3274 292.38C74.6491 307.794 92.8385 320.022 112.857 328.364C132.876 336.706 154.332 341 176 341C197.668 341 219.124 336.706 239.143 328.364C259.161 320.022 277.351 307.794 292.673 292.38C307.994 276.965 320.148 258.665 328.44 238.525C336.732 218.385 341 196.799 341 175" stroke="#191919" stroke-dasharray="4 4"/>
<path d="M21 175C21 195.486 25.0092 215.772 32.7987 234.699C40.5882 253.625 52.0054 270.823 66.3985 285.309C80.7916 299.795 97.8786 311.285 116.684 319.125C135.49 326.965 155.645 331 176 331C196.355 331 216.51 326.965 235.316 319.125C254.121 311.285 271.208 299.795 285.602 285.309C299.995 270.823 311.412 253.625 319.201 234.699C326.991 215.772 331 195.486 331 175" stroke="#191919" stroke-dasharray="4 4"/>
<path d="M31 175C31 194.173 34.7505 213.158 42.0375 230.872C49.3244 248.585 60.005 264.68 73.4695 278.238C86.934 291.795 102.919 302.549 120.511 309.886C138.103 317.224 156.958 321 176 321C195.042 321 213.897 317.224 231.489 309.886C249.081 302.549 265.066 291.795 278.53 278.238C291.995 264.68 302.676 248.585 309.963 230.872C317.249 213.158 321 194.173 321 175" stroke="#191919" stroke-dasharray="4 4"/>
<path d="M41 175C41 192.86 44.4919 210.545 51.2763 227.045C58.0606 243.545 68.0047 258.538 80.5406 271.167C93.0765 283.795 107.959 293.813 124.338 300.648C140.717 307.482 158.272 311 176 311C193.728 311 211.283 307.482 227.662 300.648C244.041 293.813 258.924 283.795 271.459 271.167C283.995 258.538 293.939 243.545 300.724 227.045C307.508 210.545 311 192.86 311 175" stroke="#191919" stroke-dasharray="4 4"/>
<path d="M51 175C51 191.547 54.2332 207.931 60.5151 223.218C66.7969 238.505 76.0043 252.395 87.6117 264.095C99.219 275.796 112.999 285.077 128.165 291.409C143.33 297.741 159.585 301 176 301C192.415 301 208.67 297.741 223.835 291.409C239.001 285.077 252.781 275.796 264.388 264.095C275.996 252.395 285.203 238.505 291.485 223.218C297.767 207.931 301 191.547 301 175" stroke="#191919" stroke-dasharray="4 4"/>
<path d="M61 175C61 190.233 63.9746 205.318 69.7539 219.391C75.5331 233.465 84.004 246.253 94.6827 257.024C105.361 267.796 118.039 276.34 131.991 282.17C145.944 288 160.898 291 176 291C191.102 291 206.056 288 220.009 282.17C233.961 276.34 246.639 267.796 257.317 257.024C267.996 246.253 276.467 233.465 282.246 219.391C288.025 205.318 291 190.233 291 175" stroke="#191919" stroke-dasharray="4 4"/>
<path d="M71 175C71 188.92 73.7159 202.704 78.9926 215.564C84.2694 228.425 92.0037 240.11 101.754 249.953C111.504 259.796 123.079 267.604 135.818 272.931C148.557 278.258 162.211 281 176 281C189.789 281 203.443 278.258 216.182 272.931C228.921 267.604 240.496 259.796 250.246 249.953C259.996 240.11 267.731 228.425 273.007 215.564C278.284 202.704 281 188.92 281 175" stroke="#191919" stroke-dasharray="4 4"/>
<path d="M81 175C81 187.607 83.4572 200.09 88.2314 211.738C93.0056 223.385 100.003 233.968 108.825 242.882C117.646 251.797 128.119 258.868 139.645 263.692C151.171 268.517 163.524 271 176 271C188.476 271 200.829 268.517 212.355 263.692C223.881 258.868 234.354 251.797 243.175 242.882C251.997 233.968 258.994 223.385 263.769 211.738C268.543 200.09 271 187.607 271 175" stroke="#191919" stroke-dasharray="4 4"/>
<path d="M91 175C91 186.294 93.1986 197.477 97.4702 207.911C101.742 218.345 108.003 227.825 115.896 235.811C123.789 243.797 133.159 250.132 143.472 254.454C153.785 258.776 164.838 261 176 261C187.162 261 198.215 258.776 208.528 254.454C218.841 250.132 228.211 243.797 236.104 235.811C243.997 227.825 250.258 218.345 254.53 207.911C258.801 197.477 261 186.294 261 175" stroke="#191919" stroke-dasharray="4 4"/>
<path d="M101 175C101 184.98 102.94 194.863 106.709 204.084C110.478 213.305 116.003 221.683 122.967 228.74C129.931 235.797 138.199 241.395 147.299 245.215C156.398 249.034 166.151 251 176 251C185.849 251 195.602 249.034 204.701 245.215C213.801 241.395 222.069 235.797 229.033 228.74C235.997 221.683 241.522 213.305 245.291 204.084C249.06 194.863 251 184.98 251 175" stroke="#191919" stroke-dasharray="4 4"/>
<path d="M111 175C111 183.667 112.681 192.25 115.948 200.257C119.214 208.265 124.002 215.54 130.038 221.669C136.074 227.798 143.239 232.659 151.126 235.976C159.012 239.293 167.464 241 176 241C184.536 241 192.988 239.293 200.874 235.976C208.761 232.659 215.926 227.798 221.962 221.669C227.998 215.54 232.786 208.265 236.052 200.257C239.319 192.25 241 183.667 241 175" stroke="#191919" stroke-dasharray="4 4"/>
<path d="M121 175C121 182.354 122.423 189.636 125.187 196.43C127.951 203.225 132.002 209.398 137.109 214.598C142.216 219.798 148.28 223.923 154.952 226.737C161.625 229.552 168.777 231 176 231C183.223 231 190.375 229.552 197.048 226.737C203.72 223.923 209.784 219.798 214.891 214.598C219.998 209.398 224.049 203.225 226.813 196.43C229.577 189.636 231 182.354 231 175" stroke="#191919" stroke-dasharray="4 4"/>
<path d="M131 175C131 181.041 132.164 187.022 134.425 192.603C136.687 198.184 140.002 203.255 144.18 207.527C148.359 211.798 153.32 215.187 158.779 217.498C164.239 219.81 170.091 221 176 221C181.909 221 187.761 219.81 193.221 217.498C198.68 215.187 203.641 211.798 207.82 207.527C211.998 203.255 215.313 198.184 217.575 192.603C219.836 187.022 221 181.041 221 175" stroke="#191919" stroke-dasharray="4 4"/>
<path d="M141 175C141 179.728 141.905 184.409 143.664 188.777C145.423 193.144 148.001 197.113 151.251 200.456C154.501 203.799 158.36 206.45 162.606 208.26C166.852 210.069 171.404 211 176 211C180.596 211 185.148 210.069 189.394 208.26C193.64 206.45 197.499 203.799 200.749 200.456C203.999 197.113 206.577 193.144 208.336 188.777C210.095 184.409 211 179.728 211 175" stroke="#191919" stroke-dasharray="4 4"/>
<path d="M151 175C151 178.414 151.647 181.795 152.903 184.95C154.159 188.104 156.001 190.97 158.322 193.385C160.644 195.799 163.4 197.714 166.433 199.021C169.466 200.327 172.717 201 176 201C179.283 201 182.534 200.327 185.567 199.021C188.6 197.714 191.356 195.799 193.678 193.385C195.999 190.97 197.841 188.104 199.097 184.95C200.353 181.795 201 178.414 201 175" stroke="#191919" stroke-dasharray="4 4"/>
<path d="M161 175C161 177.101 161.388 179.182 162.142 181.123C162.896 183.064 164.001 184.828 165.393 186.314C166.786 187.799 168.44 188.978 170.26 189.782C172.08 190.586 174.03 191 176 191C177.97 191 179.92 190.586 181.74 189.782C183.56 188.978 185.214 187.799 186.607 186.314C187.999 184.828 189.104 183.064 189.858 181.123C190.612 179.182 191 177.101 191 175" stroke="#191919" stroke-dasharray="4 4"/>
</svg>
