<svg width="55" height="55" viewBox="0 0 55 55" fill="none" xmlns="http://www.w3.org/2000/svg">
<rect width="55" height="55" rx="10" fill="url(#paint0_linear_1028_1016)"/>
<path d="M18.0719 25.52C18.5839 25.52 19.0359 25.62 19.4279 25.82C19.8279 26.02 20.1399 26.328 20.3639 26.744C20.5879 27.152 20.6999 27.68 20.6999 28.328V32H19.1999V28.52C19.1999 27.952 19.0759 27.528 18.8279 27.248C18.5799 26.968 18.2239 26.828 17.7599 26.828C17.4319 26.828 17.1399 26.9 16.8839 27.044C16.6359 27.188 16.4399 27.4 16.2959 27.68C16.1599 27.96 16.0919 28.316 16.0919 28.748V32H14.5919V28.52C14.5919 27.952 14.4679 27.528 14.2199 27.248C13.9719 26.968 13.6159 26.828 13.1519 26.828C12.8239 26.828 12.5319 26.9 12.2759 27.044C12.0279 27.188 11.8319 27.4 11.6879 27.68C11.5519 27.96 11.4839 28.316 11.4839 28.748V32H9.98389V25.592H11.4119V27.296L11.1599 26.792C11.3759 26.376 11.6879 26.06 12.0959 25.844C12.5119 25.628 12.9839 25.52 13.5119 25.52C14.1119 25.52 14.6319 25.668 15.0719 25.964C15.5199 26.26 15.8159 26.708 15.9599 27.308L15.3719 27.104C15.5799 26.624 15.9239 26.24 16.4039 25.952C16.8839 25.664 17.4399 25.52 18.0719 25.52Z" fill="white"/>
<path d="M25.5084 32.084C24.8524 32.084 24.2684 31.944 23.7564 31.664C23.2444 31.376 22.8404 30.984 22.5444 30.488C22.2484 29.992 22.1004 29.428 22.1004 28.796C22.1004 28.156 22.2484 27.592 22.5444 27.104C22.8404 26.608 23.2444 26.22 23.7564 25.94C24.2684 25.66 24.8524 25.52 25.5084 25.52C26.1724 25.52 26.7604 25.66 27.2724 25.94C27.7924 26.22 28.1964 26.604 28.4844 27.092C28.7804 27.58 28.9284 28.148 28.9284 28.796C28.9284 29.428 28.7804 29.992 28.4844 30.488C28.1964 30.984 27.7924 31.376 27.2724 31.664C26.7604 31.944 26.1724 32.084 25.5084 32.084ZM25.5084 30.8C25.8764 30.8 26.2044 30.72 26.4924 30.56C26.7804 30.4 27.0044 30.168 27.1644 29.864C27.3324 29.56 27.4164 29.204 27.4164 28.796C27.4164 28.38 27.3324 28.024 27.1644 27.728C27.0044 27.424 26.7804 27.192 26.4924 27.032C26.2044 26.872 25.8804 26.792 25.5204 26.792C25.1524 26.792 24.8244 26.872 24.5364 27.032C24.2564 27.192 24.0324 27.424 23.8644 27.728C23.6964 28.024 23.6124 28.38 23.6124 28.796C23.6124 29.204 23.6964 29.56 23.8644 29.864C24.0324 30.168 24.2564 30.4 24.5364 30.56C24.8244 30.72 25.1484 30.8 25.5084 30.8Z" fill="white"/>
<path d="M33.9988 25.52C34.5108 25.52 34.9668 25.62 35.3668 25.82C35.7748 26.02 36.0948 26.328 36.3268 26.744C36.5588 27.152 36.6748 27.68 36.6748 28.328V32H35.1748V28.52C35.1748 27.952 35.0388 27.528 34.7668 27.248C34.5028 26.968 34.1308 26.828 33.6508 26.828C33.2988 26.828 32.9868 26.9 32.7148 27.044C32.4428 27.188 32.2308 27.404 32.0788 27.692C31.9348 27.972 31.8628 28.328 31.8628 28.76V32H30.3628V25.592H31.7908V27.32L31.5388 26.792C31.7628 26.384 32.0868 26.072 32.5108 25.856C32.9428 25.632 33.4388 25.52 33.9988 25.52Z" fill="white"/>
<path d="M41.4694 32.084C40.8134 32.084 40.2294 31.944 39.7174 31.664C39.2054 31.376 38.8014 30.984 38.5054 30.488C38.2094 29.992 38.0614 29.428 38.0614 28.796C38.0614 28.156 38.2094 27.592 38.5054 27.104C38.8014 26.608 39.2054 26.22 39.7174 25.94C40.2294 25.66 40.8134 25.52 41.4694 25.52C42.1334 25.52 42.7214 25.66 43.2334 25.94C43.7534 26.22 44.1574 26.604 44.4454 27.092C44.7414 27.58 44.8894 28.148 44.8894 28.796C44.8894 29.428 44.7414 29.992 44.4454 30.488C44.1574 30.984 43.7534 31.376 43.2334 31.664C42.7214 31.944 42.1334 32.084 41.4694 32.084ZM41.4694 30.8C41.8374 30.8 42.1654 30.72 42.4534 30.56C42.7414 30.4 42.9654 30.168 43.1254 29.864C43.2934 29.56 43.3774 29.204 43.3774 28.796C43.3774 28.38 43.2934 28.024 43.1254 27.728C42.9654 27.424 42.7414 27.192 42.4534 27.032C42.1654 26.872 41.8414 26.792 41.4814 26.792C41.1134 26.792 40.7854 26.872 40.4974 27.032C40.2174 27.192 39.9934 27.424 39.8254 27.728C39.6574 28.024 39.5734 28.38 39.5734 28.796C39.5734 29.204 39.6574 29.56 39.8254 29.864C39.9934 30.168 40.2174 30.4 40.4974 30.56C40.7854 30.72 41.1094 30.8 41.4694 30.8Z" fill="white"/>
<defs>
<linearGradient id="paint0_linear_1028_1016" x1="27.5" y1="0" x2="27.5" y2="55" gradientUnits="userSpaceOnUse">
<stop stop-color="#333741"/>
<stop offset="0.510417" stop-color="#2C2F38"/>
<stop offset="1" stop-color="#1C1E23"/>
</linearGradient>
</defs>
</svg>
