<svg width="261" height="286" viewBox="0 0 261 286" fill="none" xmlns="http://www.w3.org/2000/svg">
<path d="M175 350C198.113 350 220.999 345.486 242.352 336.717C263.706 327.948 283.108 315.094 299.451 298.89C315.794 282.686 328.758 263.45 337.603 242.278C346.448 221.107 351 198.416 351 175.5C351 152.584 346.448 129.893 337.603 108.722C328.758 87.5504 315.794 68.3137 299.451 52.1099C283.108 35.906 263.706 23.0525 242.352 14.283C220.999 5.51357 198.113 0.999998 175 1" stroke="#191919" stroke-dasharray="4 4"/>
<path d="M175 340C196.799 340 218.385 335.732 238.525 327.44C258.666 319.148 276.965 306.994 292.38 291.673C307.794 276.351 320.022 258.161 328.364 238.143C336.706 218.124 341 196.668 341 175C341 153.332 336.706 131.876 328.364 111.857C320.022 91.8385 307.794 73.649 292.38 58.3274C276.965 43.0057 258.665 30.8519 238.525 22.5599C218.385 14.2678 196.799 10 175 10" stroke="#191919" stroke-dasharray="4 4"/>
<path d="M175 330C195.486 330 215.772 325.991 234.699 318.201C253.625 310.412 270.823 298.995 285.309 284.602C299.795 270.208 311.285 253.121 319.125 234.316C326.965 215.51 331 195.355 331 175C331 154.645 326.965 134.49 319.125 115.684C311.285 96.8786 299.795 79.7915 285.309 65.3984C270.823 51.0054 253.625 39.5881 234.699 31.7987C215.772 24.0092 195.486 20 175 20" stroke="#191919" stroke-dasharray="4 4"/>
<path d="M175 320C194.173 320 213.158 316.249 230.872 308.963C248.585 301.676 264.68 290.995 278.238 277.53C291.795 264.066 302.549 248.081 309.886 230.489C317.224 212.897 321 194.042 321 175C321 155.958 317.224 137.103 309.886 119.511C302.549 101.919 291.795 85.934 278.238 72.4695C264.68 59.005 248.585 48.3244 230.872 41.0375C213.158 33.7505 194.173 30 175 30" stroke="#191919" stroke-dasharray="4 4"/>
<path d="M175 310C192.86 310 210.545 306.508 227.045 299.724C243.545 292.939 258.538 282.995 271.167 270.459C283.795 257.923 293.813 243.041 300.648 226.662C307.482 210.283 311 192.728 311 175C311 157.272 307.482 139.717 300.648 123.338C293.813 106.959 283.795 92.0765 271.167 79.5406C258.538 67.0047 243.545 57.0606 227.045 50.2763C210.545 43.4919 192.86 40 175 40" stroke="#191919" stroke-dasharray="4 4"/>
<path d="M175 300C191.547 300 207.931 296.767 223.218 290.485C238.505 284.203 252.395 274.996 264.095 263.388C275.796 251.781 285.077 238.001 291.409 222.835C297.741 207.67 301 191.415 301 175C301 158.585 297.741 142.33 291.409 127.165C285.077 111.999 275.796 98.219 264.095 86.6116C252.395 75.0043 238.505 65.7969 223.218 59.5151C207.931 53.2332 191.547 50 175 50" stroke="#191919" stroke-dasharray="4 4"/>
<path d="M175 290C190.233 290 205.318 287.025 219.391 281.246C233.465 275.467 246.253 266.996 257.024 256.317C267.796 245.639 276.34 232.961 282.17 219.009C288 205.056 291 190.102 291 175C291 159.898 288 144.944 282.17 130.991C276.34 117.039 267.796 104.361 257.024 93.6827C246.253 83.004 233.465 74.5331 219.391 68.7539C205.318 62.9746 190.233 60 175 60" stroke="#191919" stroke-dasharray="4 4"/>
<path d="M175 280C188.92 280 202.704 277.284 215.564 272.007C228.425 266.731 240.11 258.996 249.953 249.246C259.796 239.496 267.604 227.921 272.931 215.182C278.258 202.443 281 188.789 281 175C281 161.211 278.258 147.557 272.931 134.818C267.604 122.079 259.796 110.504 249.953 100.754C240.11 91.0036 228.425 83.2694 215.564 77.9926C202.704 72.7159 188.92 70 175 70" stroke="#191919" stroke-dasharray="4 4"/>
<path d="M175 270C187.607 270 200.09 267.543 211.738 262.769C223.385 257.994 233.968 250.997 242.882 242.175C251.797 233.354 258.868 222.881 263.692 211.355C268.517 199.829 271 187.476 271 175C271 162.524 268.517 150.171 263.692 138.645C258.868 127.119 251.797 116.646 242.882 107.825C233.968 99.0033 223.385 92.0056 211.738 87.2314C200.09 82.4572 187.607 80 175 80" stroke="#191919" stroke-dasharray="4 4"/>
<path d="M175 260C186.294 260 197.477 257.801 207.911 253.53C218.345 249.258 227.825 242.997 235.811 235.104C243.797 227.211 250.132 217.841 254.454 207.528C258.776 197.215 261 186.162 261 175C261 163.838 258.776 152.785 254.454 142.472C250.132 132.159 243.797 122.789 235.811 114.896C227.825 107.003 218.345 100.742 207.911 96.4702C197.477 92.1986 186.294 90 175 90" stroke="#191919" stroke-dasharray="4 4"/>
<path d="M175 250C184.98 250 194.863 248.06 204.084 244.291C213.305 240.522 221.683 234.997 228.74 228.033C235.797 221.069 241.395 212.801 245.215 203.701C249.034 194.602 251 184.849 251 175C251 165.151 249.034 155.398 245.215 146.299C241.395 137.199 235.797 128.931 228.74 121.967C221.683 115.003 213.305 109.478 204.084 105.709C194.863 101.94 184.98 100 175 100" stroke="#191919" stroke-dasharray="4 4"/>
<path d="M175 240C183.667 240 192.25 238.319 200.257 235.052C208.265 231.786 215.54 226.998 221.669 220.962C227.798 214.926 232.659 207.761 235.976 199.874C239.293 191.988 241 183.536 241 175C241 166.464 239.293 158.012 235.976 150.126C232.659 142.239 227.798 135.074 221.669 129.038C215.54 123.002 208.265 118.214 200.257 114.948C192.25 111.681 183.667 110 175 110" stroke="#191919" stroke-dasharray="4 4"/>
<path d="M175 230C182.354 230 189.636 228.577 196.43 225.813C203.225 223.049 209.398 218.998 214.598 213.891C219.798 208.784 223.923 202.72 226.737 196.048C229.552 189.375 231 182.223 231 175C231 167.777 229.552 160.625 226.737 153.952C223.923 147.28 219.798 141.216 214.598 136.109C209.398 131.002 203.225 126.951 196.43 124.187C189.636 121.423 182.354 120 175 120" stroke="#191919" stroke-dasharray="4 4"/>
<path d="M175 220C181.041 220 187.022 218.836 192.603 216.575C198.184 214.313 203.255 210.998 207.527 206.82C211.798 202.641 215.187 197.68 217.498 192.221C219.81 186.761 221 180.909 221 175C221 169.091 219.81 163.239 217.498 157.779C215.187 152.32 211.798 147.359 207.527 143.18C203.255 139.002 198.184 135.687 192.603 133.425C187.022 131.164 181.041 130 175 130" stroke="#191919" stroke-dasharray="4 4"/>
<path d="M175 210C179.728 210 184.409 209.095 188.777 207.336C193.144 205.577 197.113 202.999 200.456 199.749C203.799 196.499 206.45 192.64 208.26 188.394C210.069 184.148 211 179.596 211 175C211 170.404 210.069 165.852 208.26 161.606C206.45 157.36 203.799 153.501 200.456 150.251C197.113 147.001 193.144 144.423 188.777 142.664C184.409 140.905 179.728 140 175 140" stroke="#191919" stroke-dasharray="4 4"/>
<path d="M175 200C178.414 200 181.795 199.353 184.95 198.097C188.104 196.841 190.97 194.999 193.385 192.678C195.799 190.356 197.714 187.6 199.021 184.567C200.327 181.534 201 178.283 201 175C201 171.717 200.327 168.466 199.021 165.433C197.714 162.4 195.799 159.644 193.385 157.322C190.97 155.001 188.104 153.159 184.95 151.903C181.795 150.647 178.414 150 175 150" stroke="#191919" stroke-dasharray="4 4"/>
<path d="M175 190C177.101 190 179.182 189.612 181.123 188.858C183.064 188.104 184.828 186.999 186.314 185.607C187.799 184.214 188.978 182.56 189.782 180.74C190.586 178.92 191 176.97 191 175C191 173.03 190.586 171.08 189.782 169.26C188.978 167.44 187.799 165.786 186.314 164.393C184.828 163.001 183.064 161.896 181.123 161.142C179.182 160.388 177.101 160 175 160" stroke="#191919" stroke-dasharray="4 4"/>
<path d="M177 0.999995C153.887 0.999995 131.001 5.50064 109.648 14.245C88.2944 22.9893 68.8923 35.806 52.5492 51.9634C36.2061 68.1208 23.242 87.3024 14.3972 108.413C5.55237 129.524 0.999999 152.15 1 175C1 197.85 5.55238 220.476 14.3972 241.587C23.242 262.698 36.2061 281.879 52.5492 298.037C68.8923 314.194 88.2944 327.011 109.648 335.755C131.001 344.499 153.887 349 177 349" stroke="#191919" stroke-dasharray="4 4"/>
<path d="M177 10C155.201 10 133.615 14.2679 113.475 22.5599C93.3345 30.8519 75.0348 43.0057 59.6203 58.3274C44.2057 73.6491 31.9783 91.8385 23.636 111.857C15.2937 131.876 11 153.332 11 175C11 196.668 15.2937 218.124 23.636 238.143C31.9783 258.161 44.2058 276.351 59.6203 291.673C75.0348 306.994 93.3345 319.148 113.475 327.44C133.615 335.732 155.201 340 177 340" stroke="#191919" stroke-dasharray="4 4"/>
<path d="M177 20C156.514 20 136.228 24.0092 117.301 31.7987C98.3746 39.5882 81.1773 51.0054 66.6913 65.3985C52.2054 79.7916 40.7145 96.8786 32.8748 115.684C25.0351 134.49 21 154.645 21 175C21 195.355 25.0351 215.51 32.8748 234.316C40.7145 253.121 52.2054 270.208 66.6913 284.602C81.1773 298.995 98.3746 310.412 117.301 318.201C136.228 325.991 156.514 330 177 330" stroke="#191919" stroke-dasharray="4 4"/>
<path d="M177 30C157.827 30 138.842 33.7505 121.128 41.0375C103.415 48.3244 87.3198 59.005 73.7624 72.4695C60.205 85.934 49.4508 101.919 42.1136 119.511C34.7764 137.103 31 155.958 31 175C31 194.042 34.7764 212.897 42.1136 230.489C49.4508 248.081 60.2051 264.066 73.7624 277.53C87.3198 290.995 103.415 301.676 121.128 308.963C138.842 316.249 157.827 320 177 320" stroke="#191919" stroke-dasharray="4 4"/>
<path d="M177 40C159.14 40 141.455 43.4919 124.955 50.2763C108.455 57.0606 93.4622 67.0047 80.8335 79.5406C68.2047 92.0765 58.187 106.959 51.3524 123.338C44.5177 139.717 41 157.272 41 175C41 192.728 44.5177 210.283 51.3524 226.662C58.187 243.041 68.2047 257.924 80.8335 270.459C93.4622 282.995 108.455 292.939 124.955 299.724C141.455 306.508 159.14 310 177 310" stroke="#191919" stroke-dasharray="4 4"/>
<path d="M177 50C160.453 50 144.069 53.2332 128.782 59.5151C113.495 65.7969 99.6047 75.0043 87.9045 86.6117C76.2044 98.219 66.9233 111.999 60.5912 127.165C54.2591 142.33 51 158.585 51 175C51 191.415 54.2591 207.67 60.5912 222.835C66.9233 238.001 76.2044 251.781 87.9045 263.388C99.6047 274.996 113.495 284.203 128.782 290.485C144.069 296.767 160.453 300 177 300" stroke="#191919" stroke-dasharray="4 4"/>
<path d="M177 60C161.767 60 146.682 62.9746 132.609 68.7539C118.535 74.5331 105.747 83.004 94.9756 93.6827C84.204 104.361 75.6595 117.039 69.83 130.991C64.0004 144.944 61 159.898 61 175C61 190.102 64.0004 205.056 69.83 219.009C75.6595 232.961 84.204 245.639 94.9756 256.317C105.747 266.996 118.535 275.467 132.609 281.246C146.682 287.025 161.767 290 177 290" stroke="#191919" stroke-dasharray="4 4"/>
<path d="M177 70C163.08 70 149.296 72.7159 136.436 77.9926C123.575 83.2694 111.89 91.0037 102.047 100.754C92.2037 110.504 84.3958 122.079 79.0688 134.818C73.7418 147.557 71 161.211 71 175C71 188.789 73.7418 202.443 79.0688 215.182C84.3958 227.921 92.2037 239.496 102.047 249.246C111.89 258.996 123.575 266.731 136.436 272.007C149.296 277.284 163.08 280 177 280" stroke="#191919" stroke-dasharray="4 4"/>
<path d="M177 80C164.393 80 151.91 82.4572 140.262 87.2314C128.615 92.0056 118.032 99.0033 109.118 107.825C100.203 116.646 93.132 127.119 88.3076 138.645C83.4831 150.171 81 162.524 81 175C81 187.476 83.4831 199.829 88.3076 211.355C93.132 222.881 100.203 233.354 109.118 242.175C118.032 250.997 128.615 257.994 140.262 262.769C151.91 267.543 164.393 270 177 270" stroke="#191919" stroke-dasharray="4 4"/>
<path d="M177 90C165.706 90 154.523 92.1986 144.089 96.4702C133.655 100.742 124.175 107.003 116.189 114.896C108.203 122.789 101.868 132.159 97.5464 142.472C93.2245 152.785 91 163.838 91 175C91 186.162 93.2245 197.215 97.5464 207.528C101.868 217.841 108.203 227.211 116.189 235.104C124.175 242.997 133.655 249.258 144.089 253.53C154.523 257.801 165.706 260 177 260" stroke="#191919" stroke-dasharray="4 4"/>
<path d="M177 100C167.02 100 157.137 101.94 147.916 105.709C138.695 109.478 130.317 115.003 123.26 121.967C116.203 128.931 110.605 137.199 106.785 146.299C102.966 155.398 101 165.151 101 175C101 184.849 102.966 194.602 106.785 203.701C110.605 212.801 116.203 221.069 123.26 228.033C130.317 234.997 138.695 240.522 147.916 244.291C157.137 248.06 167.02 250 177 250" stroke="#191919" stroke-dasharray="4 4"/>
<path d="M177 110C168.333 110 159.75 111.681 151.743 114.948C143.735 118.214 136.46 123.002 130.331 129.038C124.202 135.074 119.341 142.239 116.024 150.126C112.707 158.012 111 166.464 111 175C111 183.536 112.707 191.988 116.024 199.874C119.341 207.761 124.202 214.926 130.331 220.962C136.46 226.998 143.735 231.786 151.743 235.052C159.75 238.319 168.333 240 177 240" stroke="#191919" stroke-dasharray="4 4"/>
<path d="M177 120C169.646 120 162.364 121.423 155.57 124.187C148.775 126.951 142.602 131.002 137.402 136.109C132.202 141.216 128.077 147.28 125.263 153.952C122.448 160.625 121 167.777 121 175C121 182.223 122.448 189.375 125.263 196.048C128.077 202.72 132.202 208.784 137.402 213.891C142.602 218.998 148.775 223.049 155.57 225.813C162.364 228.577 169.646 230 177 230" stroke="#191919" stroke-dasharray="4 4"/>
<path d="M177 130C170.959 130 164.978 131.164 159.397 133.425C153.816 135.687 148.745 139.002 144.473 143.18C140.202 147.359 136.813 152.32 134.502 157.779C132.19 163.239 131 169.091 131 175C131 180.909 132.19 186.761 134.502 192.221C136.813 197.68 140.202 202.641 144.473 206.82C148.745 210.998 153.816 214.313 159.397 216.575C164.978 218.836 170.959 220 177 220" stroke="#191919" stroke-dasharray="4 4"/>
<path d="M177 140C172.272 140 167.591 140.905 163.223 142.664C158.856 144.423 154.887 147.001 151.544 150.251C148.201 153.501 145.55 157.36 143.74 161.606C141.931 165.852 141 170.404 141 175C141 179.596 141.931 184.148 143.74 188.394C145.55 192.64 148.201 196.499 151.544 199.749C154.887 202.999 158.856 205.577 163.223 207.336C167.591 209.095 172.272 210 177 210" stroke="#191919" stroke-dasharray="4 4"/>
<path d="M177 150C173.586 150 170.205 150.647 167.05 151.903C163.896 153.159 161.03 155.001 158.615 157.322C156.201 159.644 154.286 162.4 152.979 165.433C151.673 168.466 151 171.717 151 175C151 178.283 151.673 181.534 152.979 184.567C154.286 187.6 156.201 190.356 158.615 192.678C161.03 194.999 163.896 196.841 167.05 198.097C170.205 199.353 173.586 200 177 200" stroke="#191919" stroke-dasharray="4 4"/>
<path d="M177 160C174.899 160 172.818 160.388 170.877 161.142C168.936 161.896 167.172 163.001 165.686 164.393C164.201 165.786 163.022 167.44 162.218 169.26C161.414 171.08 161 173.03 161 175C161 176.97 161.414 178.92 162.218 180.74C163.022 182.56 164.201 184.214 165.686 185.607C167.172 186.999 168.936 188.104 170.877 188.858C172.818 189.612 174.899 190 177 190" stroke="#191919" stroke-dasharray="4 4"/>
</svg>
